<?xml version="1.0" encoding="UTF-8"?>
<!DOCTYPE svg PUBLIC "-//W3C//DTD SVG 1.1//EN" "http://www.w3.org/Graphics/SVG/1.1/DTD/svg11.dtd">
<svg version="1.2" width="66.47mm" height="29.82mm" viewBox="0 0 6647 2982" preserveAspectRatio="xMidYMid" fill-rule="evenodd" stroke-width="28.222" stroke-linejoin="round" xmlns="http://www.w3.org/2000/svg" xmlns:ooo="http://xml.openoffice.org/svg/export" xmlns:xlink="http://www.w3.org/1999/xlink" xmlns:presentation="http://sun.com/xmlns/staroffice/presentation" xmlns:smil="http://www.w3.org/2001/SMIL20/" xmlns:anim="urn:oasis:names:tc:opendocument:xmlns:animation:1.0" xmlns:svg="urn:oasis:names:tc:opendocument:xmlns:svg-compatible:1.0" xml:space="preserve">
 <defs class="ClipPathGroup">
  <clipPath id="presentation_clip_path" clipPathUnits="userSpaceOnUse">
   <rect x="0" y="0" width="6647" height="2982"/>
  </clipPath>
  <clipPath id="presentation_clip_path_shrink" clipPathUnits="userSpaceOnUse">
   <rect x="6" y="2" width="6634" height="2977"/>
  </clipPath>
 </defs>
 <defs class="TextShapeIndex">
  <g ooo:slide="id1" ooo:id-list="id3 id4 id5 id6 id7 id8 id9 id10 id11 id12 id13 id14 id15 id16 id17 id18 id19 id20 id21 id22 id23 id24 id25 id26"/>
 </defs>
 <defs class="EmbeddedBulletChars">
  <g id="bullet-char-template-57356" transform="scale(0.00048828125,-0.00048828125)">
   <path d="M 580,1141 L 1163,571 580,0 -4,571 580,1141 Z"/>
  </g>
  <g id="bullet-char-template-57354" transform="scale(0.00048828125,-0.00048828125)">
   <path d="M 8,1128 L 1137,1128 1137,0 8,0 8,1128 Z"/>
  </g>
  <g id="bullet-char-template-10146" transform="scale(0.00048828125,-0.00048828125)">
   <path d="M 174,0 L 602,739 174,1481 1456,739 174,0 Z M 1358,739 L 309,1346 659,739 1358,739 Z"/>
  </g>
  <g id="bullet-char-template-10132" transform="scale(0.00048828125,-0.00048828125)">
   <path d="M 2015,739 L 1276,0 717,0 1260,543 174,543 174,936 1260,936 717,1481 1274,1481 2015,739 Z"/>
  </g>
  <g id="bullet-char-template-10007" transform="scale(0.00048828125,-0.00048828125)">
   <path d="M 0,-2 C -7,14 -16,27 -25,37 L 356,567 C 262,823 215,952 215,954 215,979 228,992 255,992 264,992 276,990 289,987 310,991 331,999 354,1012 L 381,999 492,748 772,1049 836,1024 860,1049 C 881,1039 901,1025 922,1006 886,937 835,863 770,784 769,783 710,716 594,584 L 774,223 C 774,196 753,168 711,139 L 727,119 C 717,90 699,76 672,76 641,76 570,178 457,381 L 164,-76 C 142,-110 111,-127 72,-127 30,-127 9,-110 8,-76 1,-67 -2,-52 -2,-32 -2,-23 -1,-13 0,-2 Z"/>
  </g>
  <g id="bullet-char-template-10004" transform="scale(0.00048828125,-0.00048828125)">
   <path d="M 285,-33 C 182,-33 111,30 74,156 52,228 41,333 41,471 41,549 55,616 82,672 116,743 169,778 240,778 293,778 328,747 346,684 L 369,508 C 377,444 397,411 428,410 L 1163,1116 C 1174,1127 1196,1133 1229,1133 1271,1133 1292,1118 1292,1087 L 1292,965 C 1292,929 1282,901 1262,881 L 442,47 C 390,-6 338,-33 285,-33 Z"/>
  </g>
  <g id="bullet-char-template-9679" transform="scale(0.00048828125,-0.00048828125)">
   <path d="M 813,0 C 632,0 489,54 383,161 276,268 223,411 223,592 223,773 276,916 383,1023 489,1130 632,1184 813,1184 992,1184 1136,1130 1245,1023 1353,916 1407,772 1407,592 1407,412 1353,268 1245,161 1136,54 992,0 813,0 Z"/>
  </g>
  <g id="bullet-char-template-8226" transform="scale(0.00048828125,-0.00048828125)">
   <path d="M 346,457 C 273,457 209,483 155,535 101,586 74,649 74,723 74,796 101,859 155,911 209,963 273,989 346,989 419,989 480,963 531,910 582,859 608,796 608,723 608,648 583,586 532,535 482,483 420,457 346,457 Z"/>
  </g>
  <g id="bullet-char-template-8211" transform="scale(0.00048828125,-0.00048828125)">
   <path d="M -4,459 L 1135,459 1135,606 -4,606 -4,459 Z"/>
  </g>
  <g id="bullet-char-template-61548" transform="scale(0.00048828125,-0.00048828125)">
   <path d="M 173,740 C 173,903 231,1043 346,1159 462,1274 601,1332 765,1332 928,1332 1067,1274 1183,1159 1299,1043 1357,903 1357,740 1357,577 1299,437 1183,322 1067,206 928,148 765,148 601,148 462,206 346,322 231,437 173,577 173,740 Z"/>
  </g>
 </defs>
 <g>
  <g id="id2" class="Master_Slide">
   <g id="bg-id2" class="Background"/>
   <g id="bo-id2" class="BackgroundObjects"/>
  </g>
 </g>
 <g class="SlideGroup">
  <g>
   <g id="container-id1">
    <g id="id1" class="Slide" clip-path="url(#presentation_clip_path)">
     <g class="Page">
      <g class="com.sun.star.drawing.PolyPolygonShape">
       <g id="id3">
        <rect class="BoundingBox" stroke="none" fill="none" x="16" y="12" width="1807" height="837"/>
        <path fill="rgb(43,43,42)" stroke="none" d="M 1448,157 L 1448,149 1447,142 1446,135 1445,128 1442,121 1440,114 1436,108 1432,101 1428,95 1423,90 1418,85 1412,80 1406,76 1399,72 1392,69 1385,66 1376,64 1367,62 1359,62 1350,62 1342,63 1334,65 1326,68 1318,71 1311,75 1304,80 1297,85 1291,91 1286,97 1281,104 1276,112 1273,120 1188,108 1101,99 1010,93 916,90 915,84 913,78 911,72 909,66 906,61 903,55 900,50 896,45 892,41 887,36 882,32 877,28 872,25 866,22 860,19 854,17 849,16 843,14 838,14 833,13 820,13 813,14 807,15 800,17 794,19 788,21 782,24 776,28 771,32 766,36 761,41 757,46 752,51 749,57 745,63 742,69 740,76 739,79 739,81 738,84 738,86 738,92 738,97 620,109 510,126 407,148 314,174 312,167 310,160 308,154 304,148 301,142 297,137 292,131 287,126 282,122 276,118 270,114 264,111 257,108 251,106 243,104 236,103 227,102 218,103 209,104 200,106 192,109 184,113 176,117 169,122 163,128 157,134 151,141 147,149 143,157 140,165 137,174 136,183 136,190 136,198 137,205 138,212 140,219 142,225 145,232 148,238 123,251 100,264 80,277 62,290 47,302 34,315 29,321 24,327 20,333 17,339 39,401 56,452 62,475 66,492 67,500 68,509 69,532 69,585 66,649 67,659 70,669 75,679 82,689 91,698 102,708 129,726 163,743 204,759 251,775 305,789 429,813 574,832 738,843 919,848 1099,844 1263,833 1408,815 1532,791 1586,778 1633,763 1674,746 1708,729 1735,711 1746,702 1755,692 1762,683 1767,673 1771,663 1772,653 1768,596 1767,549 1767,529 1769,513 1773,493 1780,468 1798,411 1822,343 1819,337 1816,332 1807,320 1795,309 1781,297 1765,285 1746,273 1702,248 1650,224 1589,200 1522,178 1448,157 Z M 1660,640 L 1661,640 1663,641 1664,642 1666,642 1667,643 1668,645 1669,646 1669,647 1670,648 1671,650 1671,651 1671,653 1671,654 1671,656 1671,657 1671,659 1670,660 1670,661 1669,662 1669,664 1668,665 1667,666 1666,667 1665,667 1664,668 1663,669 1662,669 1661,670 1660,670 1658,671 1657,671 1656,671 1656,671 1655,671 1655,671 1654,670 1653,670 1652,670 1652,670 1652,670 1608,658 1608,650 1608,645 1608,641 1608,637 1607,633 1607,630 1606,626 1619,629 1633,632 1660,640 Z M 1539,584 L 1545,586 1551,589 1556,592 1561,596 1566,601 1570,605 1574,610 1577,616 1579,621 1581,627 1583,633 1584,639 1584,646 1584,652 1582,658 1581,665 1578,671 1576,677 1572,682 1568,687 1564,692 1559,696 1554,700 1549,703 1543,705 1537,707 1531,709 1525,710 1519,710 1513,710 1506,708 1500,707 1494,704 1488,702 1482,698 1477,694 1473,690 1469,685 1465,680 1462,675 1459,669 1457,663 1455,657 1455,651 1454,645 1454,639 1455,632 1457,626 1459,620 1462,614 1466,608 1469,603 1474,599 1479,595 1484,591 1489,588 1495,585 1501,583 1507,582 1513,581 1520,581 1526,581 1532,582 1539,584 Z M 1460,584 L 1454,581 1448,579 1442,575 1437,571 1433,567 1429,562 1425,557 1422,552 1419,546 1417,540 1416,534 1415,528 1415,522 1415,516 1416,509 1418,503 1420,497 1423,491 1426,485 1430,480 1435,476 1439,472 1444,468 1450,465 1455,462 1461,460 1467,459 1473,458 1480,458 1486,458 1492,459 1499,461 1505,463 1511,466 1517,469 1522,473 1526,478 1530,482 1534,487 1537,493 1540,498 1542,504 1543,510 1544,516 1545,523 1544,529 1543,535 1542,542 1539,548 1536,554 1533,559 1529,564 1525,569 1520,573 1515,577 1509,580 1504,582 1498,584 1492,586 1485,587 1479,587 1473,587 1466,586 1460,584 Z M 1419,461 L 1413,459 1407,456 1401,452 1396,448 1392,444 1388,439 1384,434 1381,429 1378,423 1376,418 1374,412 1374,405 1373,399 1373,393 1374,386 1376,380 1378,374 1381,368 1385,362 1388,357 1393,353 1398,349 1403,345 1408,342 1414,339 1420,337 1426,336 1432,335 1439,335 1445,335 1451,336 1458,338 1464,340 1470,343 1475,347 1480,350 1485,355 1489,359 1493,364 1496,370 1498,375 1500,381 1502,387 1503,393 1503,400 1503,406 1501,412 1500,419 1497,425 1495,431 1491,436 1487,441 1483,446 1478,450 1473,454 1468,457 1462,459 1456,461 1450,463 1444,464 1438,464 1432,464 1425,463 1419,461 Z M 1414,584 L 1419,589 1422,592 1425,594 1428,596 1432,599 1435,601 1439,603 1437,607 1435,610 1435,612 1434,614 1433,616 1433,618 1433,618 1433,618 1433,618 1433,619 1433,619 1433,619 1433,619 1433,619 1433,619 1433,619 1433,619 1433,619 1432,619 1432,619 1432,619 1432,619 1339,603 1248,590 1160,581 1075,575 1072,566 1070,562 1068,558 1066,554 1064,550 1061,546 1059,543 1144,549 1231,557 1321,569 1414,584 Z M 1008,536 L 1014,538 1020,541 1025,544 1030,548 1035,552 1039,557 1043,562 1046,567 1048,573 1050,579 1052,585 1053,591 1053,598 1053,604 1052,610 1050,617 1047,623 1045,629 1041,634 1037,639 1033,644 1028,648 1023,651 1018,654 1012,657 1007,659 1000,660 994,661 988,661 982,661 975,660 969,658 962,656 957,653 951,650 946,646 941,641 937,637 933,632 930,626 928,621 926,615 924,609 923,602 923,596 923,590 924,583 926,577 928,571 931,565 934,559 938,555 943,550 947,546 953,542 958,539 964,537 970,535 976,534 982,533 989,533 995,533 1001,534 1008,536 Z M 968,412 L 974,414 980,417 985,421 990,425 995,429 999,434 1003,439 1006,444 1008,450 1011,456 1012,462 1013,468 1014,474 1013,480 1012,487 1011,493 1008,499 1006,505 1002,510 998,515 994,520 989,524 984,528 978,531 973,533 967,535 961,537 954,538 948,538 942,538 935,537 929,535 923,532 917,530 911,526 906,522 902,518 898,513 894,508 891,503 888,497 886,492 885,485 884,479 884,473 884,467 885,460 887,454 889,448 892,442 896,436 899,431 904,427 908,423 913,419 919,416 924,413 930,411 936,410 942,409 949,409 955,409 961,410 968,412 Z M 888,412 L 882,410 876,407 870,403 865,399 860,395 856,390 853,385 849,380 847,374 845,369 843,363 842,356 842,350 842,344 843,337 845,331 847,325 850,319 854,314 857,309 862,304 866,300 871,296 877,293 883,291 888,289 895,287 901,286 907,286 914,286 920,287 927,289 933,291 939,294 944,298 949,302 954,306 958,311 962,316 965,321 967,327 969,333 971,339 972,345 972,352 972,358 971,364 969,371 967,377 964,383 960,388 956,393 952,398 947,402 942,405 937,408 931,411 926,413 920,414 913,415 907,415 901,415 894,414 888,412 Z M 518,566 L 600,555 689,547 785,541 887,539 892,543 897,547 900,549 902,551 905,552 908,554 904,561 904,563 903,565 902,568 902,570 902,570 806,572 715,576 631,584 553,593 549,588 546,584 542,581 537,577 533,574 528,571 523,568 518,566 Z M 488,582 L 494,583 501,585 507,587 512,590 517,593 522,597 527,601 531,606 535,611 538,616 541,622 543,627 544,634 545,640 545,646 545,653 544,659 542,665 540,671 537,677 534,682 530,687 526,692 521,696 516,700 510,703 505,705 499,707 493,709 486,710 480,710 473,710 466,709 460,707 454,705 449,702 443,699 438,695 434,691 430,686 426,681 423,676 420,670 418,664 417,658 416,652 416,645 416,639 417,632 419,626 421,620 424,614 427,609 431,604 435,599 440,595 445,592 450,589 456,586 462,584 468,582 475,582 481,581 488,582 Z M 353,525 L 354,518 356,512 358,506 361,501 364,496 368,491 372,486 377,482 382,479 387,476 393,473 399,471 405,470 412,469 418,468 425,469 432,470 438,472 444,474 450,477 455,480 460,484 464,488 468,493 472,498 475,503 478,509 480,515 481,521 482,527 482,533 482,540 481,546 479,552 477,558 474,564 471,569 467,574 463,579 458,583 453,587 448,590 442,592 436,595 430,596 424,597 417,597 411,597 404,596 398,594 392,592 386,589 381,586 376,582 371,577 367,573 363,568 360,562 357,557 355,551 354,544 353,538 353,532 353,525 Z M 289,413 L 290,406 292,400 294,394 297,389 300,383 304,378 308,374 313,370 318,366 323,363 329,360 335,358 341,357 347,356 353,355 360,356 367,357 373,359 379,361 385,364 390,367 395,371 399,375 404,380 407,385 410,390 413,396 415,402 417,408 418,414 418,420 418,427 417,433 415,440 413,446 410,452 407,457 403,462 398,466 394,470 388,474 383,477 377,480 371,482 365,483 359,484 352,484 346,484 339,483 333,481 327,479 321,476 316,473 311,469 307,465 302,460 299,455 296,450 293,444 291,438 290,432 289,426 289,419 289,413 Z M 187,637 L 188,636 190,636 199,633 232,623 284,610 354,594 358,598 362,602 366,605 371,608 376,611 381,614 386,616 392,618 310,635 250,651 212,662 202,665 199,666 198,666 198,666 196,666 195,667 193,667 192,667 190,667 189,666 187,666 186,665 185,665 184,664 182,663 181,662 180,661 179,660 179,658 178,657 177,655 177,654 177,652 177,651 177,649 177,648 178,646 178,645 179,644 180,642 181,641 182,640 183,639 184,638 186,637 187,637 Z M 196,299 L 196,303 196,306 196,310 196,314 196,318 197,321 198,329 151,348 117,363 95,373 89,376 88,377 87,377 87,377 87,377 85,378 84,378 82,379 81,379 79,379 78,379 76,379 75,379 74,378 72,378 71,377 70,376 69,375 68,374 67,372 66,371 65,370 65,368 64,367 64,365 64,364 64,362 64,361 64,359 65,358 66,356 66,355 67,354 68,353 69,352 71,351 72,350 105,333 144,316 196,296 196,299 Z M 219,257 L 212,256 206,254 200,252 194,249 189,246 184,242 180,238 175,233 172,228 169,223 166,217 164,211 163,205 162,199 162,192 162,186 163,179 165,173 167,167 170,161 173,156 177,151 181,147 186,142 191,139 196,136 202,133 208,131 214,130 220,129 226,129 233,129 240,130 246,132 252,134 258,137 263,140 268,144 273,148 277,153 281,158 284,163 287,169 289,175 290,181 291,187 291,193 291,200 290,207 288,213 286,219 283,225 280,230 276,235 272,239 267,243 262,247 257,250 251,253 245,255 239,256 232,257 226,257 219,257 Z M 279,373 L 272,372 266,370 260,368 254,365 249,362 244,358 240,354 235,349 232,344 229,338 226,333 224,327 223,321 222,314 222,308 222,301 223,294 225,288 227,282 230,277 233,272 237,267 241,262 246,258 251,255 256,252 262,249 268,247 274,246 280,245 286,245 293,245 300,246 306,247 312,250 318,252 323,255 328,259 332,263 337,268 340,273 343,278 346,284 348,290 350,296 351,303 351,309 351,316 350,322 348,329 346,334 343,340 340,345 336,350 331,355 327,359 321,363 316,366 310,368 304,371 298,372 292,373 285,373 279,373 Z M 785,183 L 783,185 782,187 781,189 780,192 779,194 778,196 777,201 777,201 777,201 776,201 776,202 776,202 776,202 776,202 776,202 776,203 776,203 776,203 776,204 660,215 553,231 456,250 368,273 366,269 364,265 362,261 360,258 357,255 355,252 352,249 349,246 439,223 541,202 652,184 772,173 773,174 775,176 776,177 778,178 781,181 785,183 Z M 807,165 L 801,163 795,160 789,156 784,152 780,148 776,143 772,138 769,133 766,127 764,122 763,116 762,109 762,103 762,97 763,90 765,84 767,78 770,72 774,67 777,62 782,57 786,53 791,49 797,46 802,44 808,41 814,40 820,39 827,39 833,39 839,40 846,42 852,44 858,47 864,51 869,55 874,59 878,63 881,69 885,74 887,79 889,85 891,91 892,98 892,104 892,110 891,117 889,123 887,129 884,135 880,140 876,145 872,150 867,154 862,158 857,161 851,163 845,165 839,167 833,168 826,168 820,168 813,167 807,165 Z M 844,290 L 838,288 832,285 826,281 821,277 817,273 813,268 809,263 806,258 803,252 801,247 800,241 799,234 798,228 798,222 799,215 801,209 803,203 806,197 810,191 814,186 818,182 823,178 828,174 833,171 839,168 845,166 851,165 857,164 864,164 870,164 876,165 883,167 889,169 895,172 900,176 905,179 910,184 914,188 918,193 921,199 923,204 925,210 927,216 928,222 928,229 928,235 927,242 925,248 923,254 920,260 916,265 912,270 908,275 903,279 898,283 893,286 887,288 882,290 876,292 869,293 863,293 857,293 850,292 844,290 Z M 1311,242 L 1216,225 1124,212 1035,205 948,201 947,197 945,192 943,188 941,184 939,180 936,176 934,173 931,169 1016,172 1104,179 1194,190 1287,206 1290,210 1293,213 1296,217 1299,220 1303,223 1307,226 1311,229 1316,232 1315,233 1314,234 1313,237 1312,240 1311,241 1311,242 Z M 1338,214 L 1332,212 1326,209 1320,205 1315,201 1311,197 1306,192 1303,187 1300,182 1297,176 1295,170 1294,164 1293,158 1293,151 1293,145 1294,138 1296,132 1298,126 1301,120 1305,115 1308,110 1313,105 1317,101 1323,98 1328,95 1334,92 1340,90 1346,89 1352,88 1358,88 1365,88 1371,89 1378,91 1384,93 1390,96 1395,99 1400,103 1405,108 1409,112 1413,117 1416,123 1418,128 1420,134 1422,140 1423,146 1423,153 1423,159 1422,166 1420,172 1417,178 1415,184 1411,189 1407,194 1403,199 1398,203 1393,207 1388,210 1382,212 1376,214 1370,216 1364,217 1357,217 1351,217 1344,216 1338,214 Z M 1375,338 L 1369,336 1363,333 1357,330 1352,326 1348,322 1344,317 1340,312 1337,306 1334,301 1332,295 1330,289 1330,283 1329,276 1329,270 1330,263 1332,257 1334,251 1337,245 1341,240 1344,235 1349,230 1354,226 1359,223 1364,220 1370,217 1376,215 1382,214 1388,213 1395,213 1401,213 1407,214 1414,216 1420,218 1426,221 1431,224 1436,228 1441,232 1445,237 1449,242 1452,247 1454,253 1456,259 1458,265 1459,271 1459,278 1459,284 1457,291 1456,297 1453,303 1451,309 1447,314 1443,319 1439,324 1434,328 1429,331 1424,334 1418,337 1412,339 1406,340 1400,341 1394,341 1388,341 1381,340 1375,338 Z M 1747,383 L 1745,383 1744,383 1744,383 1743,383 1742,382 1741,382 1741,382 1675,354 1610,329 1546,306 1483,286 1483,281 1483,277 1483,273 1483,269 1482,265 1482,261 1481,257 1480,253 1547,274 1615,297 1684,324 1754,353 1755,354 1757,355 1758,356 1759,357 1760,358 1761,359 1761,361 1762,362 1762,363 1763,365 1763,366 1763,368 1763,369 1763,371 1762,372 1762,374 1761,375 1760,376 1760,377 1759,378 1758,379 1757,379 1756,380 1755,381 1754,381 1753,382 1752,382 1751,382 1750,383 1749,383 1748,383 1747,383 Z "/>
       </g>
      </g>
      <g class="com.sun.star.drawing.PolyPolygonShape">
       <g id="id4">
        <rect class="BoundingBox" stroke="none" fill="none" x="12" y="918" width="1817" height="2049"/>
        <path fill="rgb(43,43,42)" stroke="none" d="M 1726,923 L 119,919 119,919 114,919 109,919 99,921 89,923 80,927 71,931 62,936 54,942 46,949 39,956 33,963 28,970 26,973 24,977 22,980 20,984 19,988 18,992 17,997 17,1001 16,1006 16,1011 13,2322 14,2364 14,2391 15,2401 15,2404 15,2406 17,2449 25,2493 37,2539 54,2586 76,2633 104,2679 136,2724 174,2767 218,2808 267,2845 321,2879 381,2908 447,2931 518,2949 596,2960 679,2964 1162,2965 1162,2965 1245,2961 1321,2950 1392,2932 1458,2908 1518,2879 1572,2845 1620,2807 1664,2766 1702,2722 1734,2676 1761,2629 1784,2580 1801,2532 1813,2484 1820,2438 1823,2393 1823,2392 1823,2391 1823,2388 1824,2379 1824,2352 1825,2310 1828,1025 1827,1015 1826,1005 1824,995 1820,986 1816,977 1814,972 1811,968 1808,964 1805,960 1802,956 1799,953 1791,946 1783,940 1774,935 1765,931 1755,927 1746,925 1736,923 1731,923 1726,923 Z M 1656,2312 L 1655,2340 1652,2370 1648,2403 1640,2436 1631,2471 1618,2506 1601,2541 1581,2576 1557,2610 1529,2642 1496,2672 1458,2700 1415,2725 1367,2747 1312,2764 1252,2777 1181,2784 698,2783 585,2776 524,2763 470,2744 422,2722 379,2697 341,2669 308,2638 280,2605 256,2572 237,2537 221,2503 208,2469 198,2436 191,2404 186,2375 184,2349 183,2325 181,2174 181,1087 1663,1090 1658,2232 1656,2312 Z "/>
       </g>
      </g>
      <g class="com.sun.star.drawing.PolyPolygonShape">
       <g id="id5">
        <rect class="BoundingBox" stroke="none" fill="none" x="555" y="1152" width="97" height="115"/>
        <path fill="rgb(43,43,42)" stroke="none" d="M 556,1166 L 556,1164 556,1163 556,1161 557,1160 557,1159 558,1158 559,1157 559,1156 560,1155 561,1155 562,1154 563,1154 564,1153 565,1153 567,1153 568,1153 569,1153 571,1153 572,1153 573,1154 574,1154 576,1155 577,1155 577,1156 578,1157 579,1158 580,1159 580,1160 580,1161 581,1163 581,1164 581,1166 581,1197 626,1197 626,1166 626,1164 626,1163 626,1161 627,1160 627,1159 628,1158 629,1157 629,1156 630,1155 631,1155 632,1154 634,1154 635,1153 636,1153 637,1153 639,1153 640,1153 641,1153 643,1153 644,1154 645,1154 646,1155 647,1155 648,1156 648,1157 649,1158 650,1159 650,1160 650,1161 651,1163 651,1164 651,1166 651,1254 651,1255 651,1256 650,1257 650,1258 650,1259 649,1260 648,1261 647,1262 647,1263 646,1264 644,1264 643,1265 642,1265 641,1265 639,1266 638,1266 637,1266 635,1265 634,1265 633,1265 632,1264 631,1264 630,1263 629,1262 629,1261 628,1260 627,1259 627,1258 626,1257 626,1256 626,1255 626,1254 626,1218 581,1218 581,1254 581,1255 581,1256 580,1257 580,1258 580,1259 579,1260 578,1261 577,1262 577,1263 576,1264 574,1264 573,1265 572,1265 571,1265 569,1266 568,1266 567,1266 565,1265 564,1265 563,1265 562,1264 561,1264 560,1263 559,1262 559,1261 558,1260 557,1259 557,1258 556,1257 556,1256 556,1255 556,1254 556,1166 Z "/>
       </g>
      </g>
      <g class="com.sun.star.drawing.PolyPolygonShape">
       <g id="id6">
        <rect class="BoundingBox" stroke="none" fill="none" x="674" y="1155" width="89" height="111"/>
        <path fill="rgb(43,43,42)" stroke="none" d="M 675,1170 L 675,1168 675,1166 676,1164 676,1163 677,1161 677,1160 678,1159 679,1158 680,1158 681,1157 682,1157 683,1156 685,1156 686,1156 687,1156 689,1156 748,1156 750,1156 752,1156 753,1156 754,1156 755,1157 756,1157 757,1158 758,1158 759,1159 759,1160 760,1161 760,1162 761,1163 761,1164 761,1166 761,1167 761,1168 760,1170 760,1171 759,1171 759,1172 758,1173 757,1174 756,1174 755,1175 754,1175 753,1175 752,1175 750,1176 748,1176 700,1176 700,1199 742,1199 744,1199 746,1199 747,1199 748,1199 749,1200 750,1200 751,1201 751,1201 752,1202 753,1203 753,1204 753,1205 754,1206 754,1207 754,1209 754,1210 754,1211 753,1212 753,1213 753,1214 752,1215 751,1216 751,1216 750,1217 749,1217 748,1217 747,1217 744,1218 742,1218 700,1218 700,1245 749,1245 751,1245 753,1245 754,1245 755,1245 756,1246 757,1246 758,1247 759,1247 760,1248 760,1249 761,1250 761,1251 762,1252 762,1253 762,1255 762,1256 762,1257 761,1258 761,1260 760,1260 760,1261 759,1262 758,1263 757,1263 756,1264 755,1264 754,1264 753,1264 751,1264 749,1265 689,1264 687,1264 686,1263 684,1263 683,1263 682,1263 681,1262 679,1261 679,1261 678,1260 677,1259 676,1258 676,1256 675,1255 675,1253 675,1252 675,1250 675,1170 Z "/>
       </g>
      </g>
      <g class="com.sun.star.drawing.PolyPolygonShape">
       <g id="id7">
        <rect class="BoundingBox" stroke="none" fill="none" x="777" y="1155" width="96" height="113"/>
        <path fill="rgb(43,43,42)" stroke="none" d="M 803,1204 L 828,1204 832,1203 835,1203 837,1203 838,1202 840,1202 841,1201 842,1200 843,1199 844,1198 845,1197 846,1195 846,1194 847,1192 847,1190 847,1187 847,1186 846,1184 846,1182 845,1181 844,1180 843,1179 842,1178 841,1177 839,1176 838,1176 836,1175 835,1175 833,1175 829,1175 803,1175 803,1204 Z M 793,1156 L 835,1156 840,1156 845,1156 849,1157 853,1158 856,1160 859,1161 862,1163 864,1165 866,1168 868,1170 869,1172 870,1175 871,1178 871,1180 872,1183 872,1186 872,1188 872,1190 871,1192 871,1194 870,1197 869,1199 868,1201 867,1202 866,1204 864,1206 863,1207 861,1208 859,1209 857,1210 855,1211 853,1212 853,1213 855,1213 857,1214 859,1214 861,1215 862,1216 863,1218 864,1219 865,1220 866,1222 867,1223 867,1225 867,1227 868,1231 868,1235 868,1239 868,1242 869,1245 870,1248 870,1251 871,1253 871,1254 871,1255 871,1256 871,1257 871,1258 871,1259 870,1260 870,1261 870,1262 869,1262 868,1263 868,1264 867,1264 866,1265 865,1265 864,1266 863,1266 862,1266 861,1267 860,1267 857,1266 855,1266 853,1265 852,1264 850,1263 849,1262 848,1261 847,1259 846,1258 846,1256 846,1255 845,1254 845,1251 845,1249 845,1242 844,1236 844,1234 843,1232 842,1230 842,1228 841,1226 839,1225 839,1225 838,1224 836,1223 835,1222 833,1222 830,1222 828,1222 803,1222 803,1254 803,1255 803,1256 802,1258 802,1259 802,1260 801,1261 800,1262 800,1263 799,1264 798,1265 797,1265 796,1266 795,1266 793,1266 792,1267 791,1267 789,1267 788,1266 787,1266 785,1266 784,1265 783,1265 782,1264 781,1263 781,1262 780,1261 779,1260 779,1259 778,1258 778,1256 778,1255 778,1254 778,1170 778,1168 778,1166 778,1164 779,1163 780,1161 780,1160 781,1159 782,1158 783,1158 784,1157 785,1157 787,1156 788,1156 790,1156 791,1156 793,1156 Z "/>
       </g>
      </g>
      <g class="com.sun.star.drawing.PolyPolygonShape">
       <g id="id8">
        <rect class="BoundingBox" stroke="none" fill="none" x="885" y="1152" width="113" height="117"/>
        <path fill="rgb(43,43,42)" stroke="none" d="M 972,1209 L 972,1205 971,1201 971,1198 970,1194 969,1191 968,1188 966,1186 964,1183 962,1181 960,1179 958,1177 955,1176 952,1175 949,1174 945,1173 942,1173 938,1173 934,1173 931,1174 928,1175 925,1177 923,1178 921,1180 918,1183 917,1185 915,1188 914,1191 913,1194 912,1197 911,1201 911,1205 911,1209 911,1216 912,1220 912,1224 913,1227 914,1230 916,1233 917,1236 919,1239 921,1241 924,1243 926,1244 930,1246 933,1247 937,1247 941,1248 945,1247 949,1247 952,1246 955,1244 958,1243 961,1241 963,1239 965,1236 967,1233 968,1230 969,1227 970,1224 971,1220 971,1216 972,1212 972,1209 Z M 997,1209 L 997,1214 996,1220 995,1226 993,1231 992,1236 989,1241 986,1245 983,1250 979,1254 975,1257 971,1260 966,1263 960,1265 954,1266 948,1267 941,1268 934,1267 927,1266 921,1265 916,1263 911,1261 906,1258 902,1254 899,1250 896,1246 893,1242 891,1237 889,1232 888,1226 887,1221 886,1215 886,1209 886,1203 887,1197 888,1192 890,1186 892,1181 894,1177 897,1173 900,1169 904,1165 908,1162 913,1159 918,1157 923,1155 929,1154 935,1153 942,1153 948,1153 955,1154 960,1155 966,1157 971,1160 975,1162 979,1165 983,1169 986,1173 989,1177 991,1182 993,1186 995,1192 996,1197 997,1203 997,1209 Z "/>
       </g>
      </g>
      <g class="com.sun.star.drawing.PolyPolygonShape">
       <g id="id9">
        <rect class="BoundingBox" stroke="none" fill="none" x="1014" y="1153" width="27" height="115"/>
        <path fill="rgb(43,43,42)" stroke="none" d="M 1015,1167 L 1015,1165 1015,1164 1015,1162 1016,1161 1016,1160 1017,1159 1018,1158 1018,1157 1019,1156 1020,1156 1021,1155 1022,1155 1024,1154 1025,1154 1026,1154 1028,1154 1029,1154 1030,1154 1032,1154 1033,1155 1034,1155 1035,1156 1036,1156 1036,1157 1037,1158 1038,1159 1038,1160 1039,1161 1039,1162 1040,1164 1040,1165 1040,1167 1040,1255 1040,1256 1040,1257 1039,1258 1039,1259 1038,1260 1038,1261 1037,1262 1036,1263 1036,1264 1035,1265 1034,1265 1033,1266 1032,1266 1030,1266 1029,1267 1028,1267 1026,1267 1025,1266 1024,1266 1022,1266 1021,1265 1020,1265 1019,1264 1018,1263 1018,1262 1017,1261 1016,1260 1016,1259 1015,1258 1015,1257 1015,1256 1015,1255 1015,1167 Z "/>
       </g>
      </g>
      <g class="com.sun.star.drawing.PolyPolygonShape">
       <g id="id10">
        <rect class="BoundingBox" stroke="none" fill="none" x="1059" y="1153" width="100" height="116"/>
        <path fill="rgb(43,43,42)" stroke="none" d="M 1158,1182 L 1158,1183 1158,1184 1157,1185 1157,1186 1157,1187 1156,1188 1156,1189 1155,1190 1154,1191 1153,1192 1152,1192 1151,1193 1150,1193 1149,1193 1147,1194 1146,1194 1145,1194 1143,1193 1142,1193 1141,1193 1140,1192 1140,1192 1139,1191 1138,1190 1137,1189 1135,1187 1133,1184 1131,1182 1130,1180 1128,1178 1126,1177 1123,1175 1120,1174 1117,1174 1113,1174 1110,1174 1107,1174 1105,1175 1102,1176 1100,1177 1097,1179 1095,1181 1093,1183 1091,1186 1090,1188 1088,1191 1087,1195 1086,1198 1085,1202 1085,1206 1085,1211 1085,1218 1086,1221 1086,1225 1087,1228 1088,1231 1090,1234 1091,1237 1093,1239 1095,1241 1097,1243 1100,1245 1103,1246 1106,1247 1110,1247 1114,1248 1117,1247 1120,1247 1123,1246 1125,1244 1127,1243 1129,1241 1131,1239 1132,1237 1135,1233 1136,1231 1138,1230 1139,1229 1140,1228 1141,1227 1142,1227 1143,1227 1144,1227 1145,1227 1146,1227 1147,1227 1148,1227 1149,1227 1150,1228 1151,1228 1152,1229 1153,1229 1154,1230 1155,1231 1155,1232 1156,1232 1156,1233 1157,1234 1157,1235 1157,1237 1157,1240 1156,1243 1155,1245 1153,1248 1152,1251 1150,1253 1147,1256 1144,1258 1141,1260 1138,1262 1134,1264 1131,1265 1127,1266 1123,1267 1118,1267 1114,1268 1108,1267 1102,1267 1096,1265 1091,1264 1086,1262 1082,1259 1078,1256 1074,1253 1071,1249 1068,1245 1066,1240 1063,1235 1062,1230 1061,1224 1060,1217 1060,1211 1060,1205 1061,1199 1062,1194 1063,1189 1065,1184 1067,1179 1070,1175 1073,1170 1077,1167 1081,1163 1085,1161 1090,1158 1095,1156 1101,1155 1106,1154 1113,1154 1118,1154 1123,1154 1128,1155 1132,1157 1136,1158 1140,1160 1143,1162 1146,1164 1149,1166 1151,1168 1153,1171 1155,1173 1156,1175 1157,1178 1158,1180 1158,1181 1158,1182 Z "/>
       </g>
      </g>
      <g class="com.sun.star.drawing.PolyPolygonShape">
       <g id="id11">
        <rect class="BoundingBox" stroke="none" fill="none" x="1162" y="1154" width="100" height="115"/>
        <path fill="rgb(43,43,42)" stroke="none" d="M 1213,1182 L 1212,1182 1197,1225 1227,1225 1213,1182 Z M 1210,1155 L 1216,1155 1218,1155 1219,1155 1220,1155 1220,1155 1221,1155 1222,1156 1223,1156 1224,1157 1225,1157 1225,1158 1226,1159 1227,1160 1228,1161 1228,1162 1229,1164 1259,1247 1260,1249 1260,1252 1260,1253 1261,1254 1261,1255 1261,1257 1261,1258 1261,1259 1260,1260 1260,1261 1259,1262 1259,1263 1258,1264 1258,1264 1257,1265 1256,1266 1255,1266 1254,1267 1253,1267 1252,1267 1251,1268 1250,1268 1248,1267 1247,1267 1246,1267 1245,1267 1244,1267 1243,1266 1242,1266 1242,1265 1241,1265 1240,1264 1240,1264 1239,1263 1239,1262 1238,1261 1238,1261 1232,1243 1192,1243 1185,1261 1185,1261 1184,1262 1184,1263 1184,1264 1183,1264 1182,1265 1182,1265 1181,1266 1180,1266 1180,1267 1179,1267 1178,1267 1177,1267 1176,1267 1174,1268 1173,1268 1171,1267 1170,1267 1169,1267 1168,1266 1167,1266 1166,1265 1166,1264 1165,1264 1164,1263 1164,1262 1164,1261 1163,1260 1163,1259 1163,1258 1163,1257 1163,1255 1163,1254 1163,1253 1163,1252 1164,1249 1165,1247 1198,1162 1198,1161 1199,1160 1199,1159 1200,1158 1200,1158 1201,1157 1202,1157 1202,1156 1203,1156 1204,1156 1205,1155 1206,1155 1207,1155 1208,1155 1210,1155 Z "/>
       </g>
      </g>
      <g class="com.sun.star.drawing.PolyPolygonShape">
       <g id="id12">
        <rect class="BoundingBox" stroke="none" fill="none" x="215" y="1944" width="116" height="115"/>
        <path fill="rgb(43,43,42)" stroke="none" d="M 228,2056 L 226,2056 225,2056 223,2056 222,2055 221,2055 220,2054 219,2053 218,2052 218,2052 217,2050 217,2049 216,2048 216,2047 216,2046 216,2043 216,2036 216,2035 216,2033 216,2032 217,2031 217,2030 217,2029 218,2028 219,2027 219,2026 220,2026 221,2025 222,2024 224,2024 225,2023 226,2023 228,2022 298,2000 298,2000 228,1978 226,1978 225,1977 224,1977 222,1976 221,1976 220,1975 219,1974 219,1974 218,1973 217,1972 217,1971 217,1970 216,1968 216,1967 216,1966 216,1964 216,1958 216,1957 216,1956 216,1954 217,1953 217,1952 217,1951 218,1950 219,1949 220,1948 220,1947 222,1946 223,1946 224,1945 226,1945 227,1944 229,1944 318,1944 319,1944 320,1944 321,1945 322,1945 323,1945 324,1946 325,1946 326,1947 327,1948 328,1948 328,1949 329,1950 329,1951 330,1953 330,1954 330,1955 330,1957 330,1958 329,1959 329,1960 328,1961 328,1962 327,1963 326,1964 325,1964 324,1965 323,1965 322,1966 321,1966 320,1966 319,1966 318,1966 250,1966 250,1967 322,1990 323,1991 324,1991 325,1992 326,1992 326,1993 327,1993 328,1994 328,1994 329,1995 329,1995 329,1996 330,1997 330,1998 330,1999 330,1999 330,2000 330,2002 330,2003 330,2004 329,2005 329,2006 329,2007 328,2007 328,2008 327,2009 326,2009 326,2010 325,2010 324,2011 323,2011 322,2011 250,2034 250,2034 317,2034 320,2035 321,2035 322,2035 323,2036 324,2036 325,2037 326,2038 327,2038 328,2039 328,2040 329,2041 329,2042 330,2044 330,2045 330,2046 330,2048 330,2049 329,2050 329,2051 328,2052 328,2053 327,2054 326,2055 325,2055 324,2056 323,2056 322,2057 321,2057 320,2057 318,2057 317,2057 228,2056 Z "/>
       </g>
      </g>
      <g class="com.sun.star.drawing.PolyPolygonShape">
       <g id="id13">
        <rect class="BoundingBox" stroke="none" fill="none" x="215" y="1827" width="117" height="97"/>
        <path fill="rgb(43,43,42)" stroke="none" d="M 229,1922 L 228,1922 226,1922 225,1922 224,1921 222,1921 221,1920 220,1920 219,1919 219,1918 218,1917 217,1916 217,1915 216,1914 216,1912 216,1911 216,1909 216,1908 216,1907 216,1906 217,1905 217,1903 218,1902 219,1902 219,1901 220,1900 221,1899 222,1899 224,1898 225,1898 226,1898 228,1897 229,1897 289,1897 292,1897 294,1897 296,1897 299,1896 301,1895 302,1894 304,1893 305,1891 306,1890 308,1888 308,1886 309,1884 310,1882 310,1880 311,1877 311,1874 311,1872 311,1869 310,1867 310,1865 309,1863 308,1861 307,1860 306,1858 304,1857 303,1856 301,1855 299,1854 297,1853 294,1853 292,1852 289,1852 229,1852 228,1852 226,1852 225,1852 224,1851 223,1851 222,1850 221,1850 220,1849 220,1848 219,1847 218,1846 218,1845 217,1844 217,1842 217,1841 217,1839 217,1838 217,1837 217,1836 218,1835 218,1833 219,1833 220,1832 220,1831 221,1830 222,1829 223,1829 224,1828 225,1828 226,1828 228,1827 229,1827 287,1827 292,1828 297,1828 302,1829 306,1831 310,1833 314,1835 317,1837 320,1840 323,1844 325,1847 327,1851 328,1855 329,1860 330,1864 331,1869 331,1874 331,1880 330,1885 329,1890 328,1894 327,1898 325,1902 323,1906 320,1909 317,1912 314,1915 310,1917 306,1919 302,1920 297,1921 292,1922 287,1922 229,1922 Z "/>
       </g>
      </g>
      <g class="com.sun.star.drawing.PolyPolygonShape">
       <g id="id14">
        <rect class="BoundingBox" stroke="none" fill="none" x="216" y="1724" width="115" height="92"/>
        <path fill="rgb(43,43,42)" stroke="none" d="M 286,1782 L 235,1812 234,1813 233,1813 232,1813 231,1814 231,1814 230,1814 229,1814 228,1814 228,1814 227,1814 225,1814 224,1814 223,1813 222,1812 221,1812 220,1811 219,1810 219,1809 218,1808 218,1807 218,1806 217,1804 217,1803 217,1802 217,1801 217,1800 217,1800 217,1799 217,1798 218,1797 218,1797 218,1796 219,1795 219,1795 220,1794 220,1793 221,1793 221,1792 222,1792 224,1790 264,1769 224,1747 222,1746 221,1745 220,1745 220,1744 219,1744 219,1743 218,1742 218,1742 218,1741 217,1740 217,1739 217,1738 217,1737 217,1736 217,1736 217,1735 217,1734 218,1733 218,1732 218,1731 219,1730 219,1729 220,1728 221,1727 222,1726 223,1726 224,1725 225,1725 227,1725 228,1724 229,1724 230,1725 231,1725 232,1725 233,1725 233,1726 235,1726 286,1757 318,1757 319,1757 320,1758 322,1758 323,1758 324,1759 325,1759 326,1760 327,1761 327,1762 328,1763 329,1764 329,1765 329,1766 330,1767 330,1768 330,1769 330,1771 330,1772 329,1774 329,1775 329,1776 328,1777 327,1778 327,1779 326,1780 325,1780 324,1781 323,1781 322,1782 320,1782 319,1782 318,1782 286,1782 Z "/>
       </g>
      </g>
      <g class="com.sun.star.drawing.PolyPolygonShape">
       <g id="id15">
        <rect class="BoundingBox" stroke="none" fill="none" x="1497" y="1635" width="115" height="97"/>
        <path fill="rgb(43,43,42)" stroke="none" d="M 1506,1697 L 1505,1697 1503,1696 1502,1696 1502,1695 1501,1694 1500,1693 1500,1692 1499,1691 1499,1690 1498,1689 1498,1688 1498,1687 1498,1685 1498,1682 1498,1680 1498,1677 1498,1676 1498,1675 1499,1674 1499,1673 1500,1672 1500,1671 1501,1670 1502,1669 1502,1668 1503,1668 1505,1667 1506,1666 1593,1636 1594,1636 1595,1636 1596,1636 1597,1636 1597,1636 1598,1635 1600,1635 1601,1636 1603,1636 1604,1636 1605,1636 1606,1637 1607,1638 1608,1638 1609,1639 1609,1640 1610,1641 1610,1642 1610,1643 1611,1644 1611,1645 1611,1647 1611,1649 1611,1650 1610,1651 1610,1652 1610,1653 1609,1654 1609,1655 1608,1655 1608,1656 1607,1657 1606,1658 1605,1658 1603,1659 1600,1660 1526,1682 1526,1682 1600,1706 1601,1707 1603,1707 1604,1708 1605,1708 1606,1709 1607,1709 1608,1710 1608,1711 1609,1712 1609,1712 1610,1713 1610,1714 1610,1715 1611,1716 1611,1716 1611,1717 1611,1719 1611,1720 1610,1721 1610,1722 1610,1724 1609,1725 1609,1726 1608,1727 1608,1727 1607,1728 1606,1729 1605,1729 1604,1730 1603,1730 1601,1730 1600,1730 1599,1730 1599,1730 1598,1730 1597,1730 1597,1730 1593,1728 1506,1697 Z "/>
       </g>
      </g>
      <g class="com.sun.star.drawing.PolyPolygonShape">
       <g id="id16">
        <rect class="BoundingBox" stroke="none" fill="none" x="1496" y="1743" width="116" height="27"/>
        <path fill="rgb(43,43,42)" stroke="none" d="M 1599,1743 L 1600,1743 1601,1744 1602,1744 1604,1744 1605,1745 1606,1745 1607,1746 1607,1747 1608,1748 1609,1749 1609,1750 1610,1751 1610,1752 1611,1753 1611,1754 1611,1755 1611,1757 1611,1758 1610,1760 1610,1761 1609,1762 1609,1763 1608,1764 1607,1765 1606,1766 1605,1766 1604,1767 1603,1767 1602,1768 1601,1768 1599,1768 1598,1768 1510,1767 1508,1767 1507,1767 1506,1767 1504,1767 1503,1766 1502,1765 1501,1765 1500,1764 1499,1763 1499,1762 1498,1761 1498,1760 1497,1759 1497,1758 1497,1757 1497,1755 1497,1754 1497,1753 1498,1751 1498,1750 1499,1749 1499,1748 1500,1747 1501,1746 1502,1746 1503,1745 1504,1745 1505,1744 1506,1744 1507,1744 1508,1743 1510,1743 1599,1743 Z "/>
       </g>
      </g>
      <g class="com.sun.star.drawing.PolyPolygonShape">
       <g id="id17">
        <rect class="BoundingBox" stroke="none" fill="none" x="1498" y="1790" width="114" height="82"/>
        <path fill="rgb(43,43,42)" stroke="none" d="M 1598,1791 L 1599,1791 1601,1792 1602,1792 1603,1792 1604,1793 1605,1793 1606,1794 1607,1794 1608,1795 1609,1796 1609,1797 1610,1798 1610,1799 1611,1801 1611,1802 1611,1803 1611,1805 1611,1806 1610,1807 1610,1809 1609,1810 1609,1811 1608,1812 1607,1812 1606,1813 1605,1814 1604,1814 1603,1815 1602,1815 1601,1815 1599,1815 1598,1815 1520,1815 1520,1857 1520,1859 1520,1860 1519,1861 1519,1862 1519,1863 1518,1865 1518,1866 1517,1866 1517,1867 1516,1868 1515,1869 1514,1869 1513,1870 1512,1870 1511,1870 1510,1870 1508,1870 1507,1870 1506,1870 1505,1869 1504,1869 1503,1868 1502,1867 1502,1866 1501,1866 1500,1865 1500,1863 1500,1862 1499,1861 1499,1860 1499,1859 1499,1857 1499,1805 1499,1804 1499,1802 1499,1801 1500,1799 1500,1798 1501,1797 1501,1796 1502,1795 1503,1794 1504,1793 1505,1792 1507,1791 1508,1791 1510,1791 1512,1790 1514,1790 1598,1791 Z "/>
       </g>
      </g>
      <g class="com.sun.star.drawing.PolyPolygonShape">
       <g id="id18">
        <rect class="BoundingBox" stroke="none" fill="none" x="1498" y="1883" width="114" height="81"/>
        <path fill="rgb(43,43,42)" stroke="none" d="M 1598,1883 L 1599,1883 1601,1884 1602,1884 1603,1884 1604,1885 1605,1885 1606,1886 1607,1887 1608,1888 1609,1888 1609,1889 1610,1891 1610,1892 1611,1893 1611,1894 1611,1895 1611,1897 1611,1898 1610,1900 1610,1901 1609,1902 1609,1903 1608,1904 1607,1905 1606,1906 1605,1906 1604,1907 1603,1907 1602,1908 1601,1908 1599,1908 1598,1908 1520,1908 1520,1949 1520,1951 1520,1952 1519,1953 1519,1954 1519,1955 1518,1957 1518,1958 1517,1958 1516,1959 1515,1960 1514,1961 1513,1961 1512,1962 1511,1962 1510,1962 1509,1962 1508,1962 1507,1962 1506,1962 1505,1961 1504,1961 1503,1960 1502,1959 1502,1958 1501,1958 1500,1957 1500,1955 1499,1954 1499,1953 1499,1952 1499,1951 1499,1949 1499,1897 1499,1896 1499,1894 1499,1893 1500,1892 1500,1891 1501,1889 1501,1888 1502,1887 1503,1886 1504,1886 1505,1885 1507,1884 1508,1884 1510,1884 1512,1883 1514,1883 1598,1883 Z "/>
       </g>
      </g>
      <g class="com.sun.star.drawing.PolyPolygonShape">
       <g id="id19">
        <rect class="BoundingBox" stroke="none" fill="none" x="1496" y="1965" width="115" height="100"/>
        <path fill="rgb(43,43,42)" stroke="none" d="M 1583,2015 L 1583,2014 1539,2000 1539,2029 1583,2015 Z M 1603,2000 L 1604,2001 1604,2001 1605,2002 1606,2002 1607,2003 1607,2003 1608,2004 1608,2005 1609,2006 1609,2006 1609,2007 1609,2008 1610,2009 1610,2010 1610,2012 1610,2018 1610,2020 1610,2021 1609,2022 1609,2023 1609,2024 1609,2025 1608,2026 1608,2026 1607,2027 1606,2028 1606,2029 1605,2029 1603,2030 1602,2031 1601,2031 1517,2061 1516,2061 1516,2062 1515,2062 1514,2062 1512,2063 1511,2063 1510,2063 1509,2063 1508,2063 1507,2063 1506,2063 1505,2063 1504,2062 1503,2062 1502,2061 1501,2061 1500,2060 1499,2059 1499,2058 1498,2058 1498,2057 1497,2056 1497,2055 1497,2053 1497,2052 1497,2050 1497,2049 1497,2048 1497,2047 1498,2046 1498,2046 1498,2045 1499,2044 1499,2043 1500,2043 1501,2042 1501,2042 1502,2041 1503,2041 1504,2040 1522,2034 1522,1994 1504,1988 1503,1988 1502,1987 1501,1987 1501,1986 1500,1986 1499,1985 1499,1985 1498,1984 1498,1983 1498,1982 1497,1982 1497,1981 1497,1980 1497,1979 1497,1978 1497,1977 1497,1976 1497,1975 1497,1974 1498,1973 1498,1971 1498,1970 1499,1970 1500,1969 1500,1968 1501,1967 1502,1967 1503,1966 1504,1966 1505,1966 1506,1965 1508,1965 1508,1965 1509,1965 1510,1966 1511,1966 1513,1966 1518,1968 1603,2000 Z "/>
       </g>
      </g>
      <g class="com.sun.star.drawing.PolyPolygonShape">
       <g id="id20">
        <rect class="BoundingBox" stroke="none" fill="none" x="816" y="2156" width="171" height="251"/>
        <path fill="rgb(43,43,42)" stroke="none" d="M 817,2295 L 818,2390 822,2392 826,2394 835,2397 846,2400 857,2402 868,2403 880,2404 891,2405 901,2405 922,2405 933,2404 944,2402 955,2400 965,2397 971,2395 975,2393 980,2391 985,2388 986,2295 985,2281 984,2267 982,2254 979,2241 976,2229 971,2218 967,2207 961,2197 955,2188 949,2180 942,2173 934,2167 927,2163 919,2159 915,2158 910,2157 906,2156 902,2156 897,2156 893,2157 885,2159 877,2163 869,2167 862,2173 855,2180 848,2188 842,2197 837,2207 832,2217 828,2229 824,2241 821,2254 819,2267 817,2281 817,2295 Z "/>
       </g>
      </g>
      <g class="com.sun.star.drawing.PolyPolygonShape">
       <g id="id21">
        <rect class="BoundingBox" stroke="none" fill="none" x="470" y="1580" width="401" height="158"/>
        <path fill="rgb(43,43,42)" stroke="none" d="M 716,1736 L 870,1580 797,1587 730,1599 669,1615 615,1634 567,1654 527,1674 495,1692 471,1707 564,1721 634,1729 716,1736 Z "/>
       </g>
      </g>
      <g class="com.sun.star.drawing.PolyPolygonShape">
       <g id="id22">
        <rect class="BoundingBox" stroke="none" fill="none" x="742" y="1579" width="325" height="168"/>
        <path fill="rgb(43,43,42)" stroke="none" d="M 743,1738 L 820,1743 900,1745 983,1744 1066,1739 909,1579 899,1579 743,1738 Z "/>
       </g>
      </g>
      <g class="com.sun.star.drawing.PolyPolygonShape">
       <g id="id23">
        <rect class="BoundingBox" stroke="none" fill="none" x="372" y="1315" width="1078" height="1302"/>
        <path fill="rgb(43,43,42)" stroke="none" d="M 901,1317 L 376,1316 373,2356 373,2359 373,2367 374,2380 377,2396 382,2416 391,2437 404,2461 422,2485 446,2509 476,2532 514,2554 559,2573 613,2589 677,2602 751,2610 837,2613 960,2615 986,2615 1072,2612 1147,2604 1211,2592 1265,2575 1311,2556 1348,2534 1378,2511 1401,2487 1418,2463 1431,2440 1439,2419 1444,2399 1446,2383 1447,2370 1447,2362 1447,2359 1449,1318 901,1317 Z M 529,2418 L 529,2416 529,2413 530,2411 531,2408 532,2406 534,2403 538,2399 543,2394 549,2390 555,2385 563,2381 581,2373 603,2365 628,2358 656,2351 723,1985 723,1935 723,1934 723,1932 724,1931 724,1930 725,1929 726,1927 726,1926 727,1925 728,1924 730,1924 731,1923 732,1922 734,1922 735,1922 736,1921 738,1921 764,1921 765,1921 767,1922 768,1922 770,1923 771,1923 772,1924 773,1925 774,1926 775,1927 776,1928 777,1929 778,1930 778,1931 779,1933 779,1934 779,1935 779,1968 782,1968 784,1967 790,1966 803,1963 803,1926 803,1925 803,1923 804,1922 804,1921 805,1920 806,1918 806,1917 807,1916 808,1915 810,1915 811,1914 812,1913 814,1913 815,1913 816,1912 818,1912 844,1912 845,1912 847,1913 848,1913 850,1913 851,1914 852,1915 853,1915 854,1916 855,1917 856,1918 857,1920 858,1921 858,1922 859,1923 859,1925 859,1926 859,1955 865,1955 871,1954 877,1954 883,1953 883,1913 883,1912 883,1911 884,1910 884,1908 885,1907 886,1906 886,1905 887,1904 888,1903 890,1903 891,1902 892,1901 894,1901 895,1901 896,1900 898,1900 924,1900 926,1900 927,1901 929,1901 930,1901 931,1902 933,1903 934,1903 935,1904 936,1905 936,1906 937,1908 938,1909 938,1910 939,1911 939,1913 939,1914 939,1953 953,1953 960,1954 968,1954 968,1926 968,1925 968,1924 969,1923 969,1921 970,1920 970,1919 971,1918 972,1917 973,1916 975,1916 976,1915 977,1914 978,1914 980,1914 981,1913 983,1913 1009,1913 1010,1913 1012,1914 1013,1914 1015,1914 1016,1915 1017,1916 1018,1916 1019,1917 1020,1918 1021,1919 1022,1920 1023,1921 1023,1923 1024,1924 1024,1925 1024,1926 1023,1962 1049,1968 1049,1939 1049,1938 1049,1936 1050,1935 1050,1934 1051,1933 1051,1931 1052,1930 1053,1929 1054,1928 1056,1928 1057,1927 1058,1926 1059,1926 1061,1926 1062,1925 1064,1925 1090,1925 1091,1925 1093,1926 1094,1926 1096,1926 1097,1927 1098,1928 1099,1928 1100,1929 1101,1930 1102,1931 1103,1933 1104,1934 1104,1935 1105,1936 1105,1938 1105,1939 1105,1986 1106,1986 1165,2352 1193,2359 1219,2366 1241,2373 1260,2382 1268,2386 1275,2390 1282,2395 1287,2400 1291,2404 1292,2407 1293,2409 1294,2412 1295,2414 1296,2417 1296,2419 1295,2424 1294,2428 1291,2433 1288,2437 1284,2442 1279,2446 1266,2454 1249,2462 1230,2470 1208,2476 1183,2483 1126,2494 1061,2502 989,2507 912,2508 835,2506 762,2501 697,2493 641,2482 616,2475 594,2468 575,2461 559,2453 546,2445 541,2440 536,2436 533,2432 531,2427 529,2423 529,2418 Z M 1362,1706 L 1360,1707 1359,1707 1357,1707 1356,1707 1355,1707 1354,1707 1354,1707 1353,1706 1352,1706 1351,1706 1350,1705 1350,1705 1349,1704 1342,1701 1341,1700 1339,1700 1337,1699 1336,1697 1309,1707 1282,1716 1254,1723 1225,1730 1195,1736 1165,1741 1102,1748 1152,1799 1214,1802 1214,1802 1215,1802 1215,1802 1215,1803 1215,1803 1216,1803 1216,1803 1219,1804 1333,1910 1333,1911 1334,1911 1334,1912 1335,1912 1335,1912 1335,1913 1335,1913 1335,1914 1335,1915 1335,1915 1335,1916 1335,1916 1335,1917 1335,1917 1335,1918 1335,1919 1334,1919 1334,1920 1334,1920 1334,1921 1333,1921 1333,1922 1332,1922 1332,1922 1332,1923 1331,1923 1330,1923 1330,1923 1329,1923 1329,1923 1328,1923 1256,1927 1257,1992 1257,1994 1257,1995 1257,1996 1256,1997 1256,1997 1256,1998 1255,1999 1255,1999 1254,2000 1254,2000 1253,2001 1252,2001 1252,2002 1251,2002 1250,2002 1250,2002 1249,2002 1249,2002 1248,2002 1248,2002 1248,2002 1247,2002 1247,2002 1247,2002 1246,2002 1246,2002 1245,2001 1244,2001 1244,2000 1243,1999 1142,1891 1141,1891 1141,1891 1141,1891 1141,1890 1140,1890 1140,1890 1140,1890 1140,1889 1139,1889 1139,1889 1139,1888 1139,1888 1139,1887 1139,1887 1139,1887 1139,1886 1138,1813 1076,1750 1038,1753 1001,1755 963,1756 926,1756 732,1749 663,1819 661,1884 558,1992 559,1920 559,1921 559,1921 559,1921 559,1921 559,1921 559,1921 559,1921 558,1921 558,1921 558,1921 558,1921 558,1921 558,1921 558,1921 557,1921 556,1921 556,1921 555,1921 555,1921 554,1921 554,1921 554,1920 553,1920 552,1920 552,1919 551,1918 551,1918 551,1918 551,1918 550,1918 550,1918 550,1918 550,1918 550,1918 550,1918 550,1918 550,1918 550,1918 550,1917 550,1917 550,1917 550,1916 480,1912 595,1807 648,1805 705,1747 616,1738 542,1729 457,1716 452,1720 451,1721 451,1721 450,1721 450,1722 450,1722 450,1722 450,1722 450,1722 450,1722 449,1723 448,1724 446,1724 445,1725 444,1725 442,1725 441,1725 440,1725 439,1725 438,1725 437,1725 436,1725 432,1723 413,1713 412,1713 411,1712 409,1711 408,1709 408,1708 407,1707 406,1705 406,1704 405,1703 405,1701 405,1700 405,1698 405,1697 406,1695 406,1694 407,1692 408,1691 409,1690 410,1688 411,1687 412,1686 413,1686 415,1685 416,1684 418,1684 419,1684 421,1684 422,1684 424,1684 425,1684 427,1685 428,1685 439,1691 456,1679 485,1661 525,1639 576,1615 637,1591 708,1571 789,1556 832,1551 878,1548 786,1456 758,1518 687,1340 867,1416 801,1442 904,1545 1011,1439 945,1413 1125,1338 1053,1516 1026,1453 930,1548 978,1551 1029,1557 1080,1566 1133,1579 1188,1596 1244,1618 1301,1644 1359,1674 1374,1668 1375,1668 1377,1668 1378,1668 1380,1668 1381,1668 1383,1668 1384,1669 1386,1669 1387,1670 1388,1671 1389,1672 1391,1673 1392,1674 1392,1676 1393,1677 1394,1678 1394,1680 1395,1681 1395,1683 1395,1685 1395,1686 1394,1687 1394,1689 1393,1690 1393,1692 1392,1693 1391,1694 1390,1695 1389,1696 1388,1697 1386,1698 1385,1698 1362,1706 Z "/>
       </g>
      </g>
      <g class="com.sun.star.drawing.PolyPolygonShape">
       <g id="id24">
        <rect class="BoundingBox" stroke="none" fill="none" x="937" y="1579" width="386" height="160"/>
        <path fill="rgb(43,43,42)" stroke="none" d="M 1092,1737 L 1153,1731 1213,1721 1241,1714 1269,1707 1296,1699 1322,1690 1270,1664 1219,1642 1170,1623 1121,1608 1073,1597 1027,1588 982,1583 938,1579 1092,1737 Z "/>
       </g>
      </g>
      <g class="com.sun.star.drawing.PolyPolygonShape">
       <g id="id25">
        <rect class="BoundingBox" stroke="none" fill="none" x="2059" y="1131" width="4566" height="1435"/>
        <path fill="rgb(43,43,42)" stroke="none" d="M 2816,2164 L 2808,2175 2800,2185 2791,2195 2782,2204 2773,2212 2763,2221 2753,2228 2742,2235 2731,2241 2720,2247 2707,2252 2694,2257 2681,2262 2666,2266 2635,2273 2608,2273 2593,2273 2579,2272 2565,2270 2552,2268 2539,2265 2527,2262 2515,2258 2504,2253 2492,2248 2481,2242 2470,2236 2460,2230 2450,2223 2441,2215 2431,2208 2423,2199 2414,2191 2406,2182 2399,2172 2392,2163 2385,2153 2379,2142 2374,2131 2369,2120 2364,2108 2361,2097 2358,2085 2355,2073 2354,2061 2353,2048 2352,2036 2353,2023 2353,1665 2353,1653 2354,1641 2355,1629 2358,1617 2360,1605 2364,1594 2368,1582 2373,1571 2378,1560 2384,1550 2390,1540 2396,1530 2403,1520 2410,1511 2418,1502 2426,1494 2434,1487 2443,1480 2453,1473 2463,1467 2473,1461 2483,1455 2494,1449 2505,1444 2516,1440 2528,1436 2539,1433 2551,1430 2564,1428 2576,1427 2589,1426 2603,1425 2614,1426 2624,1426 2643,1427 2672,1436 2698,1445 2710,1450 2721,1455 2732,1460 2742,1465 2753,1472 2764,1480 2774,1488 2783,1497 2792,1506 2801,1516 2809,1526 2816,1537 2822,1547 2828,1555 2835,1564 2842,1572 2849,1580 2856,1588 2864,1595 2872,1601 2880,1607 2888,1612 2897,1617 2907,1620 2917,1623 2928,1625 2940,1626 2952,1626 2967,1626 2982,1624 2996,1620 3003,1618 3010,1616 3017,1613 3023,1609 3030,1606 3036,1602 3048,1593 3060,1582 3070,1571 3079,1559 3086,1546 3092,1533 3095,1526 3097,1519 3101,1505 3103,1490 3104,1474 3103,1469 3103,1464 3103,1459 3102,1454 3101,1449 3100,1443 3098,1438 3097,1432 3088,1412 3084,1402 3082,1398 3080,1394 3061,1367 3042,1339 3021,1313 2998,1289 2974,1266 2948,1245 2920,1226 2892,1208 2872,1198 2852,1188 2831,1179 2810,1171 2788,1164 2767,1157 2744,1152 2722,1147 2695,1143 2667,1139 2637,1137 2605,1136 2575,1137 2546,1139 2518,1142 2490,1147 2463,1153 2436,1161 2411,1169 2386,1179 2362,1190 2338,1203 2316,1216 2294,1230 2273,1245 2253,1261 2233,1278 2215,1295 2197,1314 2181,1334 2165,1354 2150,1375 2136,1395 2124,1418 2112,1441 2101,1465 2091,1490 2082,1516 2075,1541 2070,1567 2065,1594 2062,1621 2060,1648 2060,1676 2060,2040 2060,2068 2062,2095 2066,2122 2070,2148 2077,2174 2084,2200 2093,2225 2104,2249 2115,2273 2128,2295 2142,2317 2156,2338 2171,2359 2188,2378 2205,2397 2223,2415 2241,2432 2261,2448 2281,2464 2303,2478 2325,2491 2347,2503 2371,2515 2395,2525 2420,2534 2445,2542 2471,2549 2497,2554 2523,2559 2550,2562 2577,2563 2605,2564 2626,2564 2663,2563 2699,2560 2734,2554 2767,2547 2800,2537 2832,2526 2863,2512 2894,2496 2922,2478 2949,2459 2975,2438 2999,2416 3021,2392 3041,2367 3060,2341 3078,2313 3083,2302 3087,2292 3097,2271 3098,2266 3100,2261 3101,2255 3102,2250 3103,2245 3103,2239 3103,2234 3104,2228 3103,2212 3101,2197 3097,2183 3095,2176 3092,2169 3089,2162 3086,2156 3083,2149 3079,2143 3070,2131 3060,2120 3048,2110 3036,2101 3024,2093 3011,2087 3004,2085 2998,2082 2991,2081 2984,2079 2969,2077 2955,2076 2940,2077 2926,2078 2914,2080 2902,2082 2892,2086 2887,2088 2882,2090 2878,2093 2874,2095 2870,2098 2867,2101 2860,2107 2853,2114 2847,2121 2840,2129 2834,2137 2828,2146 2816,2164 Z M 3382,1295 L 3365,1314 3348,1334 3333,1354 3320,1375 3306,1395 3293,1418 3281,1441 3271,1465 3261,1490 3252,1516 3245,1541 3239,1567 3234,1594 3230,1621 3228,1648 3227,1676 3227,2419 3227,2426 3227,2433 3228,2440 3229,2447 3231,2453 3233,2460 3235,2466 3238,2472 3241,2478 3244,2484 3248,2490 3252,2496 3261,2507 3272,2517 3283,2526 3295,2535 3307,2542 3320,2547 3331,2551 3344,2555 3358,2556 3372,2557 3387,2556 3401,2554 3408,2553 3414,2551 3421,2549 3427,2546 3434,2544 3440,2540 3452,2533 3464,2524 3475,2514 3486,2503 3495,2491 3503,2479 3506,2473 3509,2467 3512,2460 3514,2454 3516,2447 3518,2440 3519,2433 3520,2426 3520,2412 3520,2157 4019,2157 4019,2419 4020,2434 4022,2448 4024,2454 4025,2461 4028,2468 4030,2474 4033,2480 4036,2486 4040,2492 4043,2497 4048,2503 4052,2508 4057,2513 4062,2518 4074,2527 4085,2535 4097,2542 4110,2547 4124,2552 4137,2555 4152,2556 4166,2557 4181,2556 4196,2554 4203,2552 4210,2550 4216,2548 4223,2545 4229,2542 4235,2539 4241,2535 4247,2531 4252,2527 4258,2522 4268,2512 4278,2501 4287,2490 4294,2478 4297,2472 4300,2466 4302,2460 4304,2453 4306,2447 4308,2440 4310,2426 4310,2412 4310,1658 4310,1630 4308,1603 4304,1576 4299,1550 4293,1525 4285,1499 4276,1475 4265,1450 4254,1427 4241,1404 4228,1384 4213,1363 4198,1342 4182,1322 4165,1303 4146,1285 4128,1268 4108,1252 4088,1237 4067,1223 4045,1209 4022,1197 3999,1186 3974,1175 3950,1166 3925,1158 3899,1152 3874,1146 3848,1142 3822,1139 3795,1137 3768,1136 3740,1137 3712,1139 3684,1142 3657,1147 3630,1153 3604,1161 3578,1169 3553,1179 3529,1190 3506,1203 3484,1216 3462,1230 3441,1245 3421,1261 3401,1278 3382,1295 Z M 3520,1866 L 3520,1665 3521,1653 3522,1641 3523,1629 3525,1617 3528,1605 3531,1594 3536,1582 3540,1571 3546,1560 3551,1550 3557,1539 3564,1529 3571,1520 3578,1511 3586,1502 3594,1494 3603,1487 3612,1480 3621,1473 3630,1467 3640,1461 3651,1455 3661,1449 3672,1444 3684,1440 3695,1436 3707,1433 3718,1430 3730,1428 3742,1427 3754,1426 3766,1425 3780,1426 3793,1427 3806,1428 3818,1431 3830,1433 3842,1437 3854,1441 3865,1445 3877,1451 3888,1457 3899,1463 3909,1469 3919,1476 3928,1484 3938,1491 3946,1499 3955,1508 3963,1517 3970,1526 3977,1536 3984,1546 3990,1556 3995,1567 4000,1578 4005,1590 4008,1602 4012,1614 4014,1626 4017,1638 4018,1651 4019,1663 4019,1676 4019,1866 3520,1866 Z M 4762,1286 L 4762,1271 4761,1264 4759,1256 4758,1249 4756,1242 4753,1235 4751,1229 4747,1222 4744,1216 4740,1209 4736,1203 4727,1192 4716,1180 4704,1170 4692,1161 4680,1154 4667,1148 4654,1143 4647,1141 4640,1139 4633,1138 4626,1137 4612,1136 4596,1137 4581,1139 4566,1143 4559,1145 4552,1148 4545,1151 4539,1154 4526,1161 4514,1170 4502,1180 4492,1192 4483,1203 4479,1209 4475,1216 4472,1222 4469,1229 4466,1235 4464,1242 4462,1249 4460,1256 4458,1271 4457,1286 4457,2410 4459,2426 4462,2441 4466,2455 4471,2469 4478,2482 4486,2495 4494,2507 4504,2518 4515,2528 4527,2537 4533,2541 4540,2545 4546,2548 4553,2551 4559,2553 4566,2556 4574,2558 4581,2559 4596,2561 4612,2562 5301,2562 5316,2561 5330,2559 5337,2558 5344,2556 5351,2553 5357,2551 5364,2548 5370,2545 5382,2537 5394,2528 5405,2518 5415,2507 5420,2501 5424,2495 5428,2489 5432,2482 5435,2476 5438,2469 5440,2462 5442,2455 5446,2441 5448,2426 5448,2410 5448,2395 5446,2380 5442,2365 5440,2358 5438,2352 5435,2345 5432,2339 5428,2332 5424,2326 5420,2320 5415,2314 5405,2303 5394,2293 5382,2284 5376,2280 5370,2277 5364,2274 5357,2271 5351,2268 5344,2266 5330,2263 5316,2261 5301,2260 4762,2260 4762,1286 Z M 6464,1291 L 6445,1273 6426,1256 6405,1240 6384,1225 6362,1211 6339,1198 6315,1186 6291,1174 6266,1165 6240,1156 6214,1149 6188,1143 6161,1138 6134,1135 6107,1133 6079,1132 5688,1132 5673,1133 5658,1135 5644,1138 5637,1141 5630,1143 5624,1146 5617,1149 5611,1153 5605,1157 5593,1165 5582,1175 5572,1187 5567,1193 5563,1199 5559,1205 5555,1211 5552,1217 5549,1224 5546,1231 5544,1238 5541,1252 5539,1267 5538,1282 5538,2414 5539,2429 5541,2444 5542,2451 5544,2458 5546,2465 5549,2472 5552,2478 5555,2485 5559,2491 5563,2497 5567,2503 5572,2509 5582,2520 5593,2530 5605,2539 5617,2547 5624,2550 5630,2553 5637,2555 5644,2558 5651,2560 5658,2561 5673,2563 5688,2564 5704,2563 5718,2561 5725,2560 5732,2558 5739,2555 5746,2553 5753,2550 5759,2547 5771,2539 5783,2530 5794,2520 5804,2509 5813,2497 5821,2485 5824,2478 5827,2472 5830,2465 5832,2458 5834,2451 5835,2444 5837,2429 5838,2414 5838,2217 6079,2217 6107,2216 6134,2214 6161,2211 6188,2207 6214,2201 6240,2194 6266,2185 6291,2175 6315,2164 6339,2152 6362,2139 6384,2125 6405,2110 6426,2093 6445,2076 6464,2058 6482,2039 6499,2020 6515,1999 6530,1978 6544,1956 6557,1933 6570,1910 6581,1885 6591,1860 6599,1835 6607,1809 6613,1783 6617,1756 6620,1729 6622,1701 6623,1673 6622,1646 6620,1618 6617,1591 6613,1565 6607,1539 6599,1513 6591,1487 6581,1462 6570,1438 6557,1414 6544,1392 6530,1372 6515,1350 6499,1330 6482,1310 6464,1291 Z M 6252,1846 L 6243,1854 6234,1862 6225,1869 6215,1876 6205,1882 6195,1888 6184,1893 6173,1898 6162,1903 6150,1907 6139,1910 6127,1913 6115,1915 6103,1916 6091,1917 6079,1917 5838,1917 5838,1430 6079,1430 6091,1431 6103,1432 6115,1433 6127,1435 6139,1438 6150,1441 6162,1445 6173,1449 6184,1454 6195,1459 6205,1465 6215,1472 6225,1478 6234,1486 6243,1493 6252,1501 6260,1510 6268,1519 6275,1528 6281,1538 6288,1548 6294,1558 6299,1569 6304,1579 6309,1591 6313,1602 6316,1614 6318,1626 6320,1637 6322,1649 6323,1661 6323,1673 6323,1686 6322,1699 6320,1711 6318,1723 6316,1735 6313,1747 6309,1758 6304,1769 6299,1780 6294,1790 6288,1800 6281,1810 6275,1819 6268,1829 6260,1838 6252,1846 Z "/>
       </g>
      </g>
      <g class="com.sun.star.drawing.PolyPolygonShape">
       <g id="id26">
        <rect class="BoundingBox" stroke="none" fill="none" x="2059" y="525" width="4573" height="453"/>
        <path fill="rgb(43,43,42)" stroke="none" d="M 2109,576 L 2103,581 2098,588 2093,594 2088,601 2084,608 2080,615 2076,622 2073,630 2070,638 2067,646 2065,654 2063,662 2062,670 2061,679 2060,688 2060,697 2060,931 2060,935 2060,940 2061,942 2061,944 2062,946 2063,948 2064,950 2065,952 2066,953 2067,955 2069,957 2070,958 2072,960 2074,962 2077,965 2079,966 2081,967 2083,969 2085,970 2087,971 2089,971 2091,972 2093,973 2097,974 2101,974 2106,975 2108,974 2110,974 2112,974 2114,974 2117,973 2119,972 2123,971 2127,969 2131,967 2135,964 2139,961 2142,957 2145,953 2147,950 2149,946 2150,944 2151,942 2151,939 2152,937 2152,935 2152,933 2153,931 2153,929 2153,849 2310,849 2310,931 2310,935 2310,938 2311,940 2311,942 2312,944 2312,946 2313,948 2314,950 2315,952 2318,956 2320,959 2324,963 2327,965 2331,968 2335,970 2339,972 2343,973 2347,974 2352,974 2357,975 2361,974 2364,974 2366,974 2368,973 2370,972 2372,972 2374,971 2376,970 2378,969 2382,967 2385,964 2389,961 2392,957 2393,955 2394,953 2396,952 2397,950 2398,948 2399,946 2399,944 2400,942 2401,937 2401,933 2402,929 2402,691 2401,682 2401,673 2400,665 2398,657 2396,648 2394,640 2391,633 2388,625 2384,617 2380,610 2376,603 2371,597 2367,590 2361,584 2356,578 2351,573 2345,567 2338,562 2332,557 2325,553 2318,548 2311,544 2303,541 2296,538 2288,535 2280,532 2272,530 2264,529 2256,527 2248,526 2239,526 2231,526 2222,526 2213,526 2204,527 2196,529 2187,531 2179,533 2171,536 2163,539 2155,542 2148,546 2141,550 2134,555 2128,559 2121,564 2115,570 2109,576 Z M 2153,757 L 2153,693 2153,689 2153,685 2154,681 2154,678 2155,674 2156,670 2157,666 2159,663 2160,659 2162,656 2164,653 2166,650 2168,647 2171,644 2173,641 2176,639 2178,636 2181,634 2184,632 2187,630 2190,629 2194,627 2197,625 2201,624 2204,622 2208,621 2211,620 2215,619 2219,619 2223,618 2227,618 2231,618 2235,618 2239,618 2243,619 2247,619 2250,620 2254,621 2258,622 2262,624 2265,625 2269,627 2272,629 2275,631 2278,633 2281,636 2287,641 2289,643 2292,646 2294,649 2296,652 2298,655 2300,659 2302,662 2304,666 2305,669 2306,673 2307,677 2308,681 2309,685 2309,689 2310,693 2310,697 2310,757 2153,757 Z M 2556,541 L 2552,544 2551,546 2550,548 2549,550 2548,552 2547,554 2546,556 2545,558 2544,560 2543,564 2543,569 2543,574 2543,817 2543,820 2542,823 2542,826 2541,829 2541,833 2540,836 2539,839 2538,842 2536,845 2534,847 2533,850 2531,853 2529,855 2527,858 2525,860 2523,863 2521,865 2518,867 2516,869 2513,871 2510,872 2508,874 2505,875 2502,877 2499,878 2495,879 2492,879 2489,880 2486,881 2482,881 2479,881 2476,882 2473,882 2471,882 2469,882 2467,882 2465,883 2463,884 2461,884 2459,885 2455,887 2451,890 2447,892 2444,896 2442,897 2440,899 2439,901 2437,903 2436,905 2435,907 2434,909 2433,911 2432,913 2431,915 2430,920 2430,925 2430,930 2430,935 2430,940 2431,942 2431,944 2432,946 2433,948 2434,951 2435,953 2436,954 2437,956 2439,958 2440,960 2442,962 2444,964 2447,967 2449,968 2451,969 2453,971 2455,972 2457,973 2459,973 2461,974 2463,975 2467,976 2471,976 2476,977 2484,976 2493,976 2501,975 2509,973 2517,971 2524,969 2532,966 2540,964 2547,960 2553,956 2560,953 2567,948 2573,944 2579,940 2585,935 2591,930 2596,924 2601,918 2605,912 2609,906 2613,899 2617,892 2620,886 2624,879 2627,871 2629,864 2632,856 2634,849 2635,841 2636,833 2637,825 2638,817 2638,574 2637,569 2637,567 2637,564 2636,562 2635,560 2635,558 2634,556 2633,554 2632,552 2631,550 2629,548 2628,546 2626,544 2623,541 2621,539 2619,537 2617,536 2615,534 2613,533 2611,532 2609,530 2607,529 2605,529 2603,528 2600,527 2598,527 2596,526 2593,526 2589,526 2584,526 2582,526 2579,527 2577,527 2575,528 2573,529 2571,529 2569,530 2567,532 2565,533 2563,534 2561,536 2559,537 2556,541 Z M 2971,928 L 2976,922 2982,916 2987,910 2992,903 2996,897 3000,890 3004,882 3008,875 3011,867 3014,859 3017,851 3019,843 3020,835 3022,827 3022,818 3023,810 3023,572 3022,567 3022,565 3022,562 3021,560 3020,558 3020,556 3019,554 3018,552 3017,550 3015,547 3012,543 3009,540 3007,538 3005,537 3004,535 3002,534 3000,532 2998,531 2996,530 2994,529 2992,528 2990,528 2988,527 2986,527 2984,526 2981,526 2977,526 2972,526 2968,526 2963,527 2959,529 2955,530 2951,532 2947,535 2944,538 2942,539 2940,541 2939,542 2938,544 2936,546 2935,548 2934,550 2933,552 2933,554 2932,556 2931,560 2931,564 2931,569 2931,804 2930,808 2930,812 2930,816 2929,820 2928,824 2927,827 2926,831 2925,835 2923,838 2921,842 2919,845 2917,848 2915,851 2913,854 2910,857 2908,860 2905,862 2902,865 2899,867 2896,869 2892,871 2889,873 2885,875 2882,877 2878,878 2874,879 2871,880 2867,881 2863,882 2859,882 2855,882 2851,883 2847,882 2843,882 2839,882 2836,881 2832,880 2828,879 2824,878 2821,877 2817,875 2814,873 2811,872 2808,870 2805,868 2802,865 2799,863 2796,861 2793,858 2791,856 2788,853 2786,850 2785,847 2783,844 2781,840 2780,837 2778,833 2776,830 2775,826 2774,822 2773,819 2773,815 2773,811 2773,808 2773,572 2772,567 2772,565 2772,562 2771,560 2771,558 2770,556 2769,554 2767,550 2765,546 2762,542 2759,539 2755,536 2752,533 2750,532 2748,531 2746,530 2744,529 2742,528 2740,527 2736,526 2731,526 2727,526 2722,526 2717,526 2713,527 2709,529 2705,530 2703,531 2701,532 2699,533 2697,535 2695,536 2694,538 2690,541 2688,544 2685,548 2684,550 2683,552 2682,554 2682,556 2681,558 2681,560 2680,562 2680,564 2680,566 2680,569 2680,804 2680,813 2681,821 2682,830 2683,838 2685,846 2688,854 2690,862 2694,870 2697,877 2700,885 2704,892 2709,899 2713,906 2718,912 2724,918 2730,925 2735,930 2741,935 2748,940 2754,945 2761,950 2768,954 2776,958 2784,962 2791,965 2799,967 2807,970 2816,971 2824,973 2833,974 2842,974 2852,975 2860,974 2868,974 2876,973 2884,972 2893,970 2901,968 2909,965 2917,963 2924,959 2931,955 2938,951 2945,947 2952,943 2958,938 2964,933 2971,928 Z M 3170,541 L 3162,544 3154,548 3147,552 3140,557 3134,561 3127,566 3121,572 3116,578 3110,584 3105,590 3100,597 3095,603 3091,610 3087,617 3083,624 3080,632 3076,640 3074,648 3071,656 3070,664 3068,672 3067,681 3066,690 3066,699 3066,933 3066,937 3066,940 3066,942 3067,944 3068,946 3068,948 3069,950 3070,952 3071,954 3072,955 3074,957 3076,960 3080,964 3083,967 3087,969 3091,972 3095,973 3099,975 3104,976 3108,976 3113,977 3117,976 3121,976 3123,975 3126,975 3128,974 3130,973 3132,972 3134,971 3136,970 3137,969 3139,968 3141,966 3143,964 3145,963 3148,959 3151,956 3152,954 3154,952 3155,950 3156,948 3157,946 3157,944 3158,942 3159,940 3159,938 3159,935 3159,933 3160,931 3160,695 3160,691 3160,687 3160,684 3161,680 3162,676 3163,673 3164,669 3166,666 3167,662 3169,659 3171,655 3173,652 3175,649 3177,647 3180,644 3183,642 3185,639 3188,637 3191,635 3194,633 3197,631 3200,629 3204,627 3208,626 3211,624 3214,623 3218,622 3222,621 3225,621 3229,620 3233,620 3237,620 3241,620 3245,620 3249,621 3253,621 3257,622 3261,623 3265,624 3269,626 3272,627 3275,629 3279,631 3282,633 3285,635 3288,638 3291,640 3294,643 3296,645 3299,648 3301,651 3303,654 3305,657 3307,661 3309,664 3311,668 3312,671 3313,675 3314,679 3315,683 3316,687 3316,691 3316,695 3317,699 3317,933 3317,937 3317,940 3317,942 3318,944 3319,946 3319,948 3320,950 3321,952 3322,954 3323,956 3323,958 3324,960 3325,961 3327,963 3328,965 3332,967 3336,970 3339,972 3343,974 3348,975 3352,976 3357,976 3361,977 3366,976 3369,976 3371,976 3373,975 3375,974 3377,974 3379,973 3381,972 3383,971 3387,969 3390,966 3393,963 3397,959 3399,956 3400,954 3402,952 3403,950 3403,948 3404,946 3405,944 3405,942 3406,940 3406,935 3406,931 3406,693 3406,684 3406,676 3404,667 3403,659 3401,651 3398,643 3396,635 3392,627 3389,619 3385,612 3380,605 3376,599 3371,592 3366,586 3360,580 3354,575 3349,569 3342,564 3336,559 3330,555 3323,550 3318,546 3310,543 3303,540 3295,537 3287,534 3279,532 3271,531 3263,529 3254,528 3246,528 3238,528 3229,528 3220,528 3211,529 3202,531 3194,533 3186,535 3177,538 3170,541 Z M 3430,540 L 3429,541 3427,543 3426,545 3425,547 3423,549 3422,551 3421,553 3421,555 3419,560 3418,564 3418,569 3417,574 3418,578 3418,583 3419,588 3421,592 3421,594 3422,596 3423,598 3425,600 3426,602 3427,604 3429,606 3430,608 3434,611 3438,613 3442,616 3446,618 3451,619 3455,620 3460,620 3464,621 3544,621 3544,929 3545,934 3545,939 3546,943 3547,945 3548,947 3548,950 3549,952 3550,953 3552,955 3553,957 3554,959 3556,961 3557,963 3559,964 3561,966 3563,968 3565,969 3567,970 3569,971 3571,972 3573,973 3575,974 3577,975 3582,976 3587,976 3591,977 3597,976 3601,976 3604,975 3606,975 3608,974 3610,973 3612,972 3614,971 3616,970 3618,969 3620,968 3622,966 3624,964 3625,963 3629,959 3631,955 3634,952 3635,950 3636,947 3637,945 3637,943 3638,941 3639,939 3639,934 3639,929 3639,621 3718,621 3723,620 3728,620 3733,619 3737,618 3739,617 3741,616 3743,615 3745,613 3747,612 3749,611 3751,609 3752,608 3756,604 3758,600 3761,596 3763,592 3764,588 3766,583 3766,578 3766,574 3766,569 3766,564 3764,560 3763,555 3761,551 3758,547 3756,543 3752,540 3751,538 3749,536 3747,535 3745,533 3743,532 3741,531 3739,530 3737,529 3735,528 3733,527 3728,526 3723,526 3718,526 3464,526 3460,526 3455,526 3451,527 3448,528 3446,529 3444,530 3442,531 3440,532 3438,533 3434,536 3430,540 Z M 3822,576 L 3817,581 3812,588 3807,594 3802,601 3798,608 3794,615 3790,622 3786,630 3783,638 3780,646 3778,654 3776,662 3774,670 3773,679 3773,688 3772,697 3772,931 3773,935 3773,938 3773,940 3774,942 3774,944 3775,946 3776,948 3777,950 3778,952 3779,953 3780,955 3783,958 3786,962 3790,965 3794,967 3798,970 3800,971 3802,971 3804,972 3806,973 3810,974 3815,974 3819,975 3822,974 3824,974 3826,974 3828,974 3830,973 3832,972 3835,972 3837,971 3841,969 3844,967 3848,964 3851,961 3853,959 3855,957 3856,955 3858,953 3859,952 3860,950 3861,948 3862,946 3863,944 3864,942 3864,939 3865,937 3865,933 3865,929 3865,849 4023,849 4023,931 4024,935 4024,940 4025,942 4025,944 4026,946 4027,948 4028,950 4029,952 4030,954 4031,956 4032,957 4034,959 4037,963 4041,965 4045,968 4048,970 4052,972 4056,973 4061,974 4065,974 4069,975 4074,974 4076,974 4079,974 4081,973 4083,972 4085,972 4087,971 4089,970 4091,969 4095,967 4099,964 4102,961 4105,957 4108,953 4110,950 4112,946 4113,942 4114,937 4115,935 4115,933 4115,931 4115,929 4115,691 4115,682 4114,673 4113,665 4112,657 4110,648 4107,640 4105,633 4101,625 4098,617 4093,610 4089,603 4085,597 4080,590 4075,584 4069,578 4063,573 4058,567 4051,562 4045,557 4038,553 4031,548 4024,544 4017,541 4009,538 4001,535 3993,532 3985,530 3977,529 3969,527 3961,526 3953,526 3944,526 3935,526 3926,526 3917,527 3909,529 3901,531 3892,533 3884,536 3876,539 3869,542 3861,546 3854,550 3847,555 3841,559 3834,564 3828,570 3822,576 Z M 3865,757 L 3865,693 3866,689 3866,685 3866,681 3867,678 3868,674 3869,670 3871,666 3872,663 3874,659 3876,656 3878,653 3880,650 3882,647 3884,644 3887,641 3889,639 3892,636 3895,634 3898,632 3901,630 3904,629 3907,627 3910,625 3913,624 3917,622 3921,621 3925,620 3928,619 3932,619 3936,618 3940,618 3943,618 3948,618 3952,618 3956,619 3960,619 3964,620 3967,621 3971,622 3974,624 3978,625 3982,627 3985,629 3989,631 3992,633 3995,636 3998,638 4000,641 4003,643 4005,646 4008,649 4010,652 4012,655 4014,659 4016,662 4017,666 4019,669 4020,673 4021,677 4022,681 4023,685 4023,689 4023,693 4023,697 4023,757 3865,757 Z M 4442,536 L 4436,538 4431,541 4420,548 4409,554 4398,562 4393,558 4388,554 4382,550 4377,547 4371,544 4365,541 4359,538 4353,536 4347,533 4341,531 4335,529 4329,528 4323,527 4317,526 4310,526 4303,526 4296,526 4289,526 4281,527 4274,529 4267,530 4260,532 4254,535 4247,538 4241,541 4234,544 4228,548 4222,551 4217,555 4212,559 4206,564 4201,569 4197,574 4192,579 4188,585 4184,591 4181,596 4177,602 4174,608 4171,615 4169,621 4167,628 4165,635 4163,642 4162,648 4161,655 4161,662 4160,669 4160,929 4161,934 4161,939 4162,941 4162,943 4163,945 4164,947 4165,950 4166,952 4168,955 4171,959 4174,963 4176,964 4178,966 4180,968 4181,969 4183,970 4185,971 4187,972 4189,973 4191,974 4194,975 4196,975 4198,976 4203,976 4207,977 4212,976 4217,976 4222,975 4224,974 4226,973 4228,972 4231,971 4233,970 4235,969 4237,968 4239,966 4242,963 4244,961 4246,959 4247,957 4248,955 4249,953 4250,952 4251,950 4252,947 4253,945 4254,943 4255,939 4255,934 4255,929 4255,675 4256,670 4256,665 4257,662 4257,660 4259,656 4261,651 4263,647 4266,643 4269,640 4271,638 4273,637 4275,635 4276,634 4278,633 4280,632 4282,631 4284,630 4287,629 4289,628 4293,627 4298,627 4303,627 4308,627 4313,627 4317,628 4322,630 4324,631 4326,632 4328,633 4330,634 4332,635 4334,637 4336,638 4337,640 4341,643 4343,647 4346,651 4348,656 4349,660 4350,662 4350,665 4351,670 4351,675 4351,929 4352,934 4352,939 4353,943 4354,945 4354,947 4355,950 4356,952 4357,953 4359,955 4360,957 4361,959 4363,961 4364,963 4368,966 4372,969 4374,970 4376,971 4378,972 4380,973 4382,974 4385,975 4389,976 4394,976 4398,977 4403,976 4408,976 4412,975 4414,974 4416,973 4419,972 4421,971 4423,970 4425,969 4429,966 4432,963 4434,961 4435,959 4437,957 4438,955 4439,953 4440,952 4441,950 4442,947 4443,945 4444,943 4445,939 4445,934 4445,929 4445,675 4446,670 4446,665 4447,662 4447,660 4449,656 4451,651 4453,647 4456,643 4459,640 4463,637 4467,634 4471,632 4473,631 4475,630 4479,628 4484,627 4488,627 4493,627 4498,627 4503,627 4508,628 4512,630 4514,631 4516,632 4518,633 4520,634 4522,635 4524,637 4526,638 4527,640 4531,643 4533,647 4536,651 4538,656 4539,660 4540,662 4540,665 4541,670 4541,675 4541,929 4542,934 4542,938 4543,941 4543,943 4544,945 4545,947 4546,949 4547,951 4548,953 4549,955 4552,959 4555,963 4559,966 4563,969 4565,970 4567,971 4569,972 4571,973 4573,974 4575,975 4577,975 4579,976 4584,976 4589,977 4594,976 4599,976 4601,975 4603,975 4605,974 4607,973 4609,972 4611,971 4613,970 4615,969 4617,968 4619,966 4621,964 4622,963 4625,959 4628,955 4631,952 4632,950 4633,947 4634,945 4634,943 4635,941 4635,939 4636,934 4636,929 4636,669 4636,661 4635,654 4634,647 4632,640 4631,633 4629,627 4626,620 4623,614 4620,607 4617,601 4613,595 4610,589 4606,583 4602,578 4597,573 4592,568 4588,563 4583,558 4578,554 4572,550 4567,547 4561,543 4555,540 4548,537 4542,534 4535,532 4529,530 4522,528 4515,527 4508,526 4501,526 4493,526 4487,526 4480,526 4473,527 4467,528 4461,529 4455,531 4448,533 4442,536 Z M 4778,797 L 4886,797 4891,796 4893,796 4896,796 4898,795 4900,795 4902,794 4904,793 4906,792 4908,791 4912,789 4916,786 4919,783 4923,779 4924,777 4926,775 4927,774 4928,772 4930,770 4931,768 4931,766 4932,763 4933,761 4933,759 4934,757 4934,754 4934,750 4934,745 4934,742 4933,740 4933,737 4932,735 4931,733 4931,731 4930,729 4928,727 4927,725 4926,723 4924,721 4923,719 4919,716 4918,714 4916,712 4914,711 4912,709 4910,708 4908,707 4906,706 4904,705 4902,704 4900,703 4898,703 4896,702 4891,702 4886,702 4778,702 4778,621 4934,621 4939,620 4944,620 4948,619 4950,618 4952,618 4954,617 4956,616 4958,615 4960,613 4962,612 4964,611 4967,608 4970,604 4973,600 4976,596 4978,592 4979,588 4980,583 4981,578 4981,574 4981,569 4980,564 4979,560 4978,555 4976,551 4973,547 4970,543 4967,540 4966,538 4964,536 4962,535 4960,533 4958,532 4956,531 4954,530 4952,529 4950,528 4948,527 4946,527 4944,526 4939,526 4934,526 4732,526 4727,526 4725,526 4722,527 4720,527 4718,528 4716,529 4713,529 4711,530 4709,532 4707,533 4705,534 4704,536 4702,537 4698,541 4695,544 4692,548 4690,552 4689,554 4688,556 4687,558 4686,560 4686,562 4685,564 4685,567 4685,569 4684,574 4684,929 4685,934 4685,936 4685,939 4686,941 4686,943 4687,945 4688,947 4689,950 4690,952 4691,953 4693,955 4694,957 4696,959 4699,963 4701,964 4703,966 4705,968 4706,969 4708,970 4710,971 4712,972 4714,973 4716,974 4719,975 4721,975 4723,976 4728,976 4732,977 4934,977 4939,976 4944,976 4946,975 4948,975 4950,974 4952,973 4954,972 4956,971 4958,970 4960,969 4962,968 4964,966 4966,964 4967,963 4970,959 4973,955 4976,952 4977,950 4978,947 4978,945 4979,943 4980,941 4980,939 4981,934 4981,929 4981,924 4981,921 4980,919 4980,917 4979,915 4978,913 4978,911 4977,909 4976,907 4973,903 4970,899 4967,896 4964,892 4960,890 4956,887 4954,886 4952,885 4950,884 4948,884 4946,883 4944,882 4941,882 4939,882 4934,882 4778,882 4778,797 Z M 5130,541 L 5122,544 5115,548 5108,552 5101,557 5094,561 5088,566 5082,572 5076,578 5071,584 5066,590 5061,597 5056,603 5052,610 5048,617 5044,624 5040,632 5037,640 5034,648 5032,656 5030,664 5029,672 5028,681 5027,690 5026,699 5026,933 5026,937 5027,940 5027,942 5028,944 5028,946 5029,948 5030,950 5031,952 5032,954 5033,955 5034,957 5037,960 5040,964 5044,967 5048,969 5052,972 5056,973 5060,975 5064,976 5069,976 5073,977 5078,976 5082,976 5084,975 5086,975 5088,974 5090,973 5092,972 5094,971 5096,970 5098,969 5100,968 5102,966 5104,964 5105,963 5109,959 5110,957 5112,956 5113,954 5114,952 5115,950 5116,948 5117,946 5117,944 5118,942 5118,940 5119,935 5119,931 5119,695 5119,691 5120,687 5120,683 5121,680 5122,676 5123,673 5125,669 5126,666 5128,662 5130,659 5132,655 5134,652 5136,649 5138,647 5141,644 5143,642 5146,639 5149,637 5152,635 5154,633 5158,631 5161,629 5164,627 5167,626 5171,624 5175,623 5178,622 5182,621 5186,621 5190,620 5193,620 5197,620 5201,620 5205,620 5210,621 5214,621 5218,622 5222,623 5225,624 5229,626 5233,627 5236,629 5239,631 5242,633 5246,635 5249,638 5251,640 5254,643 5257,645 5259,648 5262,651 5264,654 5266,657 5268,661 5270,664 5271,668 5273,671 5274,675 5275,679 5276,683 5276,687 5277,691 5277,695 5277,699 5277,933 5277,937 5278,940 5278,942 5279,944 5279,946 5280,948 5281,950 5282,952 5283,954 5284,956 5285,958 5287,960 5288,961 5290,963 5291,965 5295,967 5298,970 5302,972 5306,974 5310,975 5315,976 5319,976 5324,977 5326,976 5329,976 5331,976 5333,976 5335,975 5337,974 5339,974 5341,973 5345,971 5349,969 5353,966 5356,963 5359,959 5362,956 5364,952 5366,948 5367,944 5368,942 5368,940 5369,938 5369,935 5369,931 5369,693 5369,684 5368,676 5367,667 5366,659 5364,651 5361,643 5358,635 5355,627 5351,619 5347,612 5343,605 5338,599 5334,592 5328,586 5323,580 5317,575 5311,569 5305,564 5299,559 5292,555 5286,550 5278,546 5271,543 5263,540 5255,537 5247,534 5239,532 5231,531 5223,529 5215,528 5206,528 5198,528 5189,528 5180,528 5171,529 5163,531 5154,533 5146,535 5138,538 5130,541 Z M 5393,540 L 5390,543 5387,547 5385,551 5383,555 5381,560 5380,564 5379,569 5379,574 5379,578 5380,583 5381,588 5383,592 5385,596 5387,600 5390,604 5393,608 5395,609 5397,611 5399,612 5400,613 5402,615 5404,616 5407,617 5409,618 5413,619 5418,620 5422,620 5427,621 5507,621 5507,929 5507,934 5508,939 5509,943 5510,945 5510,947 5511,950 5512,952 5513,953 5514,955 5516,957 5517,959 5519,961 5520,963 5522,964 5524,966 5525,968 5527,969 5529,970 5531,971 5533,972 5535,973 5537,974 5540,975 5542,975 5544,976 5549,976 5554,977 5559,976 5564,976 5566,975 5569,975 5571,974 5573,973 5575,972 5577,971 5579,970 5581,969 5583,968 5585,966 5586,964 5588,963 5590,961 5591,959 5593,957 5594,955 5595,953 5596,952 5597,950 5598,947 5599,945 5599,943 5600,939 5601,934 5601,929 5601,621 5680,621 5685,620 5690,620 5695,619 5700,618 5702,617 5704,616 5706,615 5708,613 5710,612 5712,611 5713,609 5715,608 5717,606 5718,604 5720,602 5721,600 5722,598 5723,596 5724,594 5725,592 5726,588 5727,583 5728,578 5728,574 5728,569 5727,564 5726,560 5725,555 5724,553 5723,551 5722,549 5721,547 5720,545 5718,543 5717,541 5715,540 5713,538 5712,536 5710,535 5708,533 5706,532 5704,531 5702,530 5700,529 5697,528 5695,527 5690,526 5685,526 5680,526 5427,526 5422,526 5418,526 5413,527 5411,528 5409,529 5407,530 5404,531 5402,532 5400,533 5399,535 5397,536 5395,538 5393,540 Z M 6170,541 L 6169,542 6167,544 6166,546 6164,547 6163,549 6162,551 6161,553 6160,555 6159,557 6158,559 6157,561 6157,564 6157,566 6156,568 6156,570 6156,573 6156,654 6147,649 6138,646 6128,642 6119,640 6109,638 6099,636 6088,635 6078,635 6069,635 6061,636 6052,637 6044,638 6036,640 6028,643 6020,645 6012,649 6004,652 5997,656 5990,660 5983,665 5976,670 5969,675 5963,680 5957,686 5951,692 5946,698 5941,704 5936,711 5932,718 5927,725 5924,732 5920,740 5917,748 5914,756 5911,764 5909,772 5908,780 5907,789 5906,797 5906,806 5906,815 5907,823 5908,832 5909,840 5911,848 5914,857 5917,865 5920,873 5924,880 5928,887 5932,894 5936,901 5941,908 5947,914 5952,920 5958,927 5964,932 5970,938 5977,943 5983,948 5990,952 5997,956 6005,960 6012,964 6020,967 6028,969 6036,972 6044,973 6053,975 6061,976 6070,976 6078,977 6086,976 6095,976 6103,975 6111,973 6119,971 6127,969 6134,966 6142,963 6150,959 6157,955 6164,951 6171,947 6178,942 6185,937 6191,931 6197,926 6203,920 6208,914 6213,907 6218,901 6223,894 6227,887 6231,879 6235,872 6238,864 6241,856 6243,848 6245,839 6246,831 6247,823 6248,814 6248,806 6248,574 6248,569 6247,564 6246,559 6246,557 6245,555 6244,553 6243,551 6242,549 6241,547 6240,545 6238,543 6237,541 6235,540 6231,537 6228,534 6224,532 6220,530 6218,529 6216,528 6212,527 6207,527 6203,527 6201,527 6198,527 6196,527 6194,528 6192,528 6189,529 6187,530 6185,531 6183,531 6181,532 6179,533 6177,535 6175,536 6173,537 6172,539 6170,541 Z M 6132,750 L 6135,752 6138,755 6140,758 6142,761 6144,764 6146,767 6150,775 6151,778 6153,782 6154,785 6155,789 6155,793 6156,797 6156,801 6156,806 6156,810 6156,814 6155,818 6155,821 6154,825 6153,829 6151,833 6150,837 6146,843 6144,846 6142,849 6140,853 6138,856 6135,859 6132,862 6129,864 6127,867 6124,869 6121,871 6117,873 6114,875 6111,877 6107,879 6104,880 6100,881 6096,882 6093,883 6089,884 6085,884 6082,884 6078,885 6074,884 6070,884 6066,884 6062,883 6058,882 6054,881 6051,880 6047,879 6044,877 6040,875 6037,873 6034,871 6030,869 6027,867 6021,862 6019,859 6016,856 6014,853 6011,850 6009,847 6007,844 6006,840 6004,837 6003,833 6001,829 6000,825 6000,821 5999,818 5998,814 5998,810 5998,806 5998,802 5998,798 5999,794 6000,791 6000,787 6001,783 6003,779 6004,776 6006,772 6007,769 6009,766 6011,762 6014,759 6016,756 6019,753 6021,751 6024,748 6027,745 6030,743 6034,740 6037,738 6040,736 6044,734 6047,733 6051,731 6054,730 6058,729 6062,728 6066,727 6070,727 6074,727 6078,727 6082,727 6085,727 6089,727 6093,728 6096,729 6100,730 6104,731 6107,733 6111,734 6114,736 6117,738 6121,740 6124,742 6127,745 6129,747 6132,750 Z M 6338,687 L 6333,693 6327,699 6322,706 6317,712 6313,719 6309,726 6305,734 6301,742 6298,749 6295,757 6293,765 6291,773 6289,781 6288,789 6287,797 6287,806 6287,814 6288,823 6289,831 6291,839 6293,848 6295,856 6298,864 6301,872 6305,879 6309,887 6313,894 6317,901 6322,908 6328,915 6333,921 6339,927 6345,932 6351,938 6357,943 6364,948 6371,953 6378,957 6386,961 6393,965 6401,968 6409,970 6417,973 6425,974 6433,976 6442,976 6450,977 6458,977 6465,976 6471,976 6478,975 6484,975 6496,972 6508,970 6514,968 6519,966 6524,964 6530,961 6535,959 6540,955 6545,952 6550,949 6552,946 6555,943 6557,939 6558,936 6560,933 6561,930 6562,927 6563,924 6563,920 6563,917 6563,914 6563,911 6562,908 6561,905 6560,902 6559,899 6557,896 6556,893 6554,890 6552,888 6550,886 6548,884 6546,881 6543,880 6540,878 6537,876 6534,875 6531,874 6528,873 6524,872 6521,871 6517,871 6513,871 6511,871 6510,871 6508,871 6506,872 6505,872 6503,873 6497,875 6494,876 6491,878 6488,879 6486,880 6485,880 6483,881 6481,882 6479,882 6477,883 6475,883 6473,884 6471,884 6469,884 6464,885 6458,885 6453,884 6448,884 6443,883 6439,882 6434,881 6430,879 6426,877 6422,875 6418,872 6414,869 6411,866 6407,862 6404,858 6400,854 6394,845 6582,845 6587,845 6592,844 6597,844 6601,843 6605,841 6609,839 6613,837 6616,835 6618,833 6619,832 6621,830 6622,829 6623,827 6624,826 6625,824 6626,822 6627,820 6628,818 6629,816 6629,814 6629,812 6630,810 6630,808 6630,806 6630,797 6629,789 6628,781 6627,773 6625,765 6622,757 6619,749 6616,742 6612,734 6608,727 6604,719 6599,712 6595,706 6589,699 6584,693 6578,687 6572,681 6566,675 6559,670 6552,665 6545,661 6538,657 6531,652 6523,649 6515,645 6508,643 6500,640 6492,638 6483,637 6475,636 6467,635 6458,635 6449,635 6441,636 6433,637 6424,638 6416,640 6408,643 6401,645 6393,649 6385,652 6378,657 6371,661 6364,665 6357,670 6350,675 6344,681 6338,687 Z M 6394,767 L 6397,761 6400,756 6404,752 6407,748 6410,744 6414,741 6418,738 6422,736 6426,734 6430,732 6435,730 6439,729 6444,728 6448,727 6453,727 6458,727 6463,727 6468,727 6473,728 6477,729 6481,730 6486,732 6490,734 6494,736 6498,738 6502,741 6506,744 6510,748 6513,752 6517,756 6520,761 6523,767 6394,767 Z "/>
       </g>
      </g>
     </g>
    </g>
   </g>
  </g>
 </g>
</svg>