<?xml version="1.0" encoding="UTF-8" standalone="no"?>
<!-- Created with Inkscape (http://www.inkscape.org/) -->

<svg
   xmlns:dc="http://purl.org/dc/elements/1.1/"
   xmlns:cc="http://creativecommons.org/ns#"
   xmlns:rdf="http://www.w3.org/1999/02/22-rdf-syntax-ns#"
   xmlns:svg="http://www.w3.org/2000/svg"
   xmlns="http://www.w3.org/2000/svg"
   xmlns:sodipodi="http://sodipodi.sourceforge.net/DTD/sodipodi-0.dtd"
   xmlns:inkscape="http://www.inkscape.org/namespaces/inkscape"
   version="1.1"
   width="250.26112"
   height="111.70475"
   id="svg3974"
   inkscape:version="0.48.3.1 r9886"
   sodipodi:docname="dibujo.svg">
  <sodipodi:namedview
     pagecolor="#ffffff"
     bordercolor="#666666"
     borderopacity="1"
     objecttolerance="10"
     gridtolerance="10"
     guidetolerance="10"
     inkscape:pageopacity="0"
     inkscape:pageshadow="2"
     inkscape:window-width="640"
     inkscape:window-height="480"
     id="namedview58"
     showgrid="false"
     fit-margin-top="0"
     fit-margin-left="0"
     fit-margin-right="0"
     fit-margin-bottom="0"
     inkscape:zoom="0.95623533"
     inkscape:cx="131.55444"
     inkscape:cy="48.188336"
     inkscape:window-x="625"
     inkscape:window-y="331"
     inkscape:window-maximized="0"
     inkscape:current-layer="svg3974" />
  <defs
     id="defs3">
    <clipPath
       id="clipPath16">
      <path
         d="m 197.994,729.303 200.209,0 0,89.365 -200.209,0 0,-89.365 z"
         id="path18"
         inkscape:connector-curvature="0" />
    </clipPath>
  </defs>
  <metadata
     id="metadata3978">
    <rdf:RDF>
      <cc:Work
         rdf:about="">
        <dc:format>image/svg+xml</dc:format>
        <dc:type
           rdf:resource="http://purl.org/dc/dcmitype/StillImage" />
        <dc:title />
      </cc:Work>
    </rdf:RDF>
  </metadata>
  <g
     id="layer1"
     transform="translate(-19.036105,-32.152871)">
    <g
       transform="matrix(1.25,0,0,-1.25,-228.45652,1055.487)"
       id="g12">
      <g
         clip-path="url(#clipPath16)"
         id="g14">
        <g
           transform="translate(252.7026,808.6978)"
           id="g20">
          <path
             d="m 0,0 c -0.787,1.745 -5.084,4.002 -11.3,5.61 0.065,1.214 -0.685,2.369 -1.904,2.755 -1.403,0.446 -2.884,-0.289 -3.39,-1.644 -3.324,0.55 -6.967,0.898 -10.793,0.911 -0.151,0.999 -0.845,1.881 -1.878,2.207 -1.447,0.459 -2.987,-0.331 -3.443,-1.77 -0.068,-0.213 -0.068,-0.425 -0.083,-0.638 -4.871,-0.378 -9.253,-1.256 -12.8,-2.341 -0.241,1.118 -1.164,2.014 -2.369,2.147 -1.509,0.168 -2.865,-0.907 -3.032,-2.407 -0.068,-0.606 0.09,-1.176 0.377,-1.663 -2.137,-1.04 -3.533,-2.114 -3.958,-3.045 0,0 1.289,-3.508 1.478,-4.626 0.2,-1.174 10e-4,-4.759 10e-4,-4.759 -0.007,-3.299 10.629,-5.996 25.773,-6.029 15.145,-0.033 25.791,2.615 25.8,5.915 0,0 -0.235,3.18 -0.073,4.225 C -1.386,-3.814 0,0 0,0 m -6.529,-8.557 c 0.544,-0.138 1.088,-0.276 1.637,-0.426 0.252,-0.071 0.4,-0.331 0.331,-0.584 -0.058,-0.208 -0.249,-0.348 -0.458,-0.348 -0.043,0 -0.086,0.007 -0.128,0.019 -0.449,0.123 -0.892,0.233 -1.337,0.348 0.047,0.34 0.033,0.669 -0.045,0.991 m -4.498,-0.014 c 0.328,1.027 1.427,1.592 2.46,1.264 1.032,-0.329 1.605,-1.425 1.278,-2.453 -0.327,-1.027 -1.427,-1.592 -2.459,-1.263 -1.032,0.327 -1.606,1.422 -1.279,2.452 m 2.548,2.538 c -0.326,-1.026 -1.427,-1.597 -2.46,-1.269 -1.032,0.329 -1.603,1.428 -1.275,2.456 0.325,1.025 1.425,1.593 2.457,1.264 1.034,-0.329 1.605,-1.427 1.278,-2.451 m -1.257,3.716 c -0.327,-1.029 -1.429,-1.594 -2.461,-1.266 -1.033,0.329 -1.605,1.428 -1.279,2.452 0.327,1.028 1.427,1.592 2.461,1.265 1.032,-0.327 1.604,-1.426 1.279,-2.451 M -23.079,-6.05 c 3.371,-0.176 6.967,-0.563 10.729,-1.243 0.218,-0.232 0.479,-0.431 0.776,-0.58 -0.079,-0.146 -0.149,-0.298 -0.201,-0.462 -0.002,-0.007 -0.002,-0.014 -0.004,-0.021 -3.795,0.72 -7.422,1.136 -10.825,1.335 -0.095,0.355 -0.249,0.681 -0.475,0.971 m -4.008,-1.048 c 0.327,1.029 1.427,1.592 2.459,1.265 1.032,-0.33 1.605,-1.426 1.279,-2.453 -0.327,-1.027 -1.427,-1.592 -2.46,-1.264 -1.031,0.327 -1.605,1.423 -1.278,2.452 m -1.188,3.726 c 0.326,1.024 1.426,1.594 2.458,1.265 1.033,-0.33 1.604,-1.428 1.277,-2.453 -0.325,-1.025 -1.426,-1.595 -2.46,-1.268 -1.031,0.329 -1.602,1.429 -1.275,2.456 m 2.479,2.528 c -0.327,-1.028 -1.429,-1.593 -2.461,-1.264 -1.033,0.329 -1.606,1.426 -1.28,2.452 0.327,1.027 1.427,1.592 2.461,1.264 1.032,-0.328 1.605,-1.425 1.28,-2.452 m -12.587,-6.713 c -0.268,0.356 -0.632,0.621 -1.046,0.814 3.14,0.441 6.912,0.781 11.167,0.813 0.189,-0.177 0.387,-0.348 0.627,-0.468 -0.078,-0.147 -0.148,-0.298 -0.2,-0.462 -10e-4,-0.003 -10e-4,-0.007 -0.002,-0.011 -3.976,-0.01 -7.527,-0.296 -10.546,-0.686 M -42.52,-8.95 c 0.121,1.072 1.089,1.841 2.165,1.721 1.077,-0.122 1.853,-1.084 1.733,-2.157 -0.12,-1.071 -1.089,-1.839 -2.165,-1.718 -1.076,0.119 -1.853,1.083 -1.733,2.154 m -0.162,1.263 c -1.076,0.122 -1.85,1.088 -1.73,2.162 0.12,1.066 1.088,1.838 2.164,1.717 1.078,-0.121 1.852,-1.087 1.731,-2.155 -0.119,-1.068 -1.087,-1.844 -2.165,-1.724 m -1.958,3.402 c -1.078,0.121 -1.854,1.086 -1.734,2.156 0.12,1.071 1.089,1.839 2.167,1.72 1.076,-0.12 1.851,-1.086 1.733,-2.154 -0.12,-1.073 -1.09,-1.842 -2.166,-1.722 m -5.087,-5.212 c -0.087,0.246 0.045,0.517 0.293,0.601 0.059,0.02 1.871,0.628 5.027,1.29 0.317,-0.328 0.694,-0.596 1.148,-0.734 -3.671,-0.716 -5.799,-1.428 -5.863,-1.45 -0.247,-0.088 -0.52,0.043 -0.605,0.293 m 0.566,10.917 c -0.004,-0.028 -0.016,-0.055 -0.02,-0.085 -0.035,-0.314 -0.008,-0.619 0.06,-0.91 -2.109,-0.818 -3.296,-1.449 -3.347,-1.478 -0.23,-0.126 -0.519,-0.042 -0.647,0.187 -0.126,0.23 -0.043,0.518 0.187,0.644 0.055,0.031 1.398,0.743 3.767,1.642 m 2.846,2.887 c -0.12,-1.073 -1.089,-1.842 -2.167,-1.721 -1.076,0.121 -1.851,1.084 -1.73,2.156 0.119,1.072 1.087,1.84 2.165,1.72 1.077,-0.12 1.852,-1.085 1.732,-2.155 M -44.5,0.813 c -0.12,-1.072 -1.092,-1.839 -2.169,-1.719 -1.075,0.119 -1.851,1.085 -1.732,2.154 0.121,1.071 1.089,1.839 2.166,1.719 1.075,-0.119 1.854,-1.085 1.735,-2.154 m 12.757,4.305 c 0.125,-0.096 0.23,-0.213 0.373,-0.288 -0.098,-0.169 -0.182,-0.348 -0.243,-0.542 -0.012,-0.035 -0.014,-0.069 -0.023,-0.104 -4.828,-0.306 -9.016,-1.142 -12.344,-2.064 -0.14,0.309 -0.328,0.579 -0.569,0.817 3.426,0.967 7.772,1.858 12.806,2.181 m 3.52,1.527 c -0.327,-1.03 -1.428,-1.595 -2.461,-1.266 -1.032,0.329 -1.604,1.425 -1.276,2.452 0.325,1.028 1.425,1.593 2.459,1.266 1.032,-0.328 1.604,-1.426 1.278,-2.452 m 1.098,-3.782 c -0.327,-1.027 -1.429,-1.591 -2.463,-1.262 -1.031,0.327 -1.603,1.424 -1.277,2.45 0.327,1.027 1.427,1.593 2.459,1.264 1.031,-0.328 1.606,-1.425 1.281,-2.452 m 11.815,0.493 c -0.058,-0.101 -0.098,-0.214 -0.145,-0.324 -3.855,0.8 -7.529,1.181 -10.962,1.259 -0.115,0.347 -0.28,0.67 -0.522,0.946 3.368,-0.045 6.968,-0.373 10.747,-1.095 0.238,-0.314 0.52,-0.595 0.882,-0.786 m 3.148,1.814 c -0.328,-1.027 -1.429,-1.594 -2.461,-1.265 -1.032,0.329 -1.604,1.424 -1.277,2.453 0.325,1.028 1.426,1.592 2.459,1.264 1.033,-0.328 1.605,-1.426 1.279,-2.452 m 1.098,-3.78 c -0.327,-1.028 -1.43,-1.592 -2.463,-1.264 -1.031,0.327 -1.604,1.425 -1.278,2.451 0.327,1.027 1.427,1.592 2.459,1.264 1.032,-0.327 1.607,-1.426 1.282,-2.451 m 9.245,-2.332 c -0.079,-0.177 -0.253,-0.282 -0.434,-0.281 -0.066,0 -0.131,0.013 -0.195,0.041 -2.651,1.184 -5.254,2.135 -7.796,2.897 0.033,0.349 0.005,0.685 -0.091,1.011 2.697,-0.79 5.459,-1.786 8.277,-3.042 0.239,-0.107 0.347,-0.39 0.239,-0.626"
             id="path22"
             style="fill:#2b2b2a;fill-opacity:1;fill-rule:nonzero;stroke:none"
             inkscape:connector-curvature="0" />
        </g>
        <g
           transform="translate(251.9961,790.2495)"
           id="g24">
          <path
             d="m 0,0 c -0.579,0.578 -1.366,0.905 -2.187,0.906 l -48.612,0.11 -0.007,0 c -0.818,0 -1.604,-0.326 -2.184,-0.899 -0.582,-0.577 -0.91,-1.071 -0.912,-1.888 l -0.1,-39.735 c 0,-0.183 0.016,-2.354 0.048,-2.535 0,-6.633 6.17,-16.872 20.087,-16.872 1.048,0 13.522,-0.033 14.615,-0.033 l 0.003,0 c 13.814,0 20.002,10.272 20.002,17.301 0.034,0.182 0.05,2.312 0.05,2.495 l 0.1,38.97 C 0.904,-1.363 0.581,-0.58 0,0 m -4.261,-38.769 -0.058,-2.437 c 0,-4.252 -1.935,-12.319 -12.223,-14.057 l -2.127,-0.208 -14.627,0.027 -3.401,0.227 c -10.279,1.78 -12.17,10.155 -12.17,13.613 l -0.058,4.593 0.012,32.953 44.819,-0.1 -0.167,-34.611 z"
             id="path26"
             style="fill:#2b2b2a;fill-opacity:1;fill-rule:nonzero;stroke:none"
             inkscape:connector-curvature="0" />
        </g>
        <g
           transform="translate(214.4141,783.8081)"
           id="g28">
          <path
             d="m 0,0 c 0,0.226 0.148,0.376 0.377,0.375 0.231,0 0.378,-0.152 0.378,-0.377 L 0.752,-0.935 2.123,-0.938 2.126,-0.004 C 2.126,0.221 2.273,0.37 2.504,0.37 2.732,0.369 2.881,0.219 2.879,-0.006 L 2.874,-2.67 c 0,-0.225 -0.148,-0.375 -0.378,-0.373 -0.23,0 -0.377,0.151 -0.377,0.375 L 2.122,-1.57 0.751,-1.567 0.749,-2.664 C 0.747,-2.89 0.601,-3.04 0.37,-3.039 c -0.231,0 -0.375,0.15 -0.375,0.377 L 0,0 z"
             id="path30"
             style="fill:#2b2b2a;fill-opacity:1;fill-rule:nonzero;stroke:none"
             inkscape:connector-curvature="0" />
        </g>
        <g
           transform="translate(218.0098,783.6763)"
           id="g32">
          <path
             d="M 0,0 C 0.002,0.335 0.176,0.44 0.443,0.438 L 2.215,0.435 C 2.436,0.435 2.597,0.37 2.597,0.132 2.596,-0.106 2.435,-0.17 2.214,-0.17 L 0.755,-0.167 0.753,-0.878 2.032,-0.883 C 2.23,-0.884 2.387,-0.938 2.385,-1.172 2.385,-1.405 2.229,-1.46 2.03,-1.46 L 0.752,-1.456 0.749,-2.253 2.245,-2.257 c 0.221,0 0.382,-0.062 0.382,-0.301 C 2.626,-2.798 2.465,-2.86 2.244,-2.86 l -1.808,0.004 c -0.267,0 -0.441,0.107 -0.441,0.44 L 0,0 z"
             id="path34"
             style="fill:#2b2b2a;fill-opacity:1;fill-rule:nonzero;stroke:none"
             inkscape:connector-curvature="0" />
        </g>
        <g
           transform="translate(221.8945,782.6421)"
           id="g36">
          <path
             d="m 0,0 0.754,-0.002 c 0.287,0 0.571,0.074 0.573,0.443 0,0.354 -0.217,0.445 -0.548,0.446 L 0.003,0.889 0,0 z m -0.752,1.027 c 0.002,0.335 0.176,0.44 0.443,0.44 L 0.947,1.464 C 1.844,1.461 2.083,0.973 2.082,0.544 2.08,0.189 1.868,-0.163 1.509,-0.245 l 0,-0.009 c 0.386,-0.057 0.455,-0.336 0.455,-0.67 -0.002,-0.379 0.1,-0.52 0.099,-0.677 0,-0.174 -0.18,-0.294 -0.355,-0.294 -0.415,0.002 -0.445,0.401 -0.445,0.534 0.001,0.576 -0.105,0.81 -0.518,0.81 l -0.747,0.002 -0.001,-0.967 c 0,-0.222 -0.148,-0.374 -0.378,-0.373 -0.23,0 -0.377,0.153 -0.377,0.377 l 0.006,2.539 z"
             id="path38"
             style="fill:#2b2b2a;fill-opacity:1;fill-rule:nonzero;stroke:none"
             inkscape:connector-curvature="0" />
        </g>
        <g
           transform="translate(226.0737,781.3306)"
           id="g40">
          <path
             d="M 0,0 C 0.684,-0.003 0.919,0.527 0.921,1.159 0.922,1.79 0.621,2.241 0.004,2.243 -0.611,2.244 -0.918,1.794 -0.919,1.164 -0.921,0.532 -0.709,0.002 0,0 M 0.005,2.847 C 1.091,2.844 1.679,2.124 1.677,1.158 1.675,0.229 1.13,-0.608 -0.002,-0.604 -1.189,-0.602 -1.675,0.167 -1.673,1.165 -1.67,2.13 -1.08,2.848 0.005,2.847"
             id="path42"
             style="fill:#2b2b2a;fill-opacity:1;fill-rule:nonzero;stroke:none"
             inkscape:connector-curvature="0" />
        </g>
        <g
           transform="translate(228.3047,783.7769)"
           id="g44">
          <path
             d="m 0,0 c 0,0.225 0.148,0.375 0.377,0.375 0.231,0 0.378,-0.152 0.378,-0.376 L 0.749,-2.664 C 0.747,-2.89 0.601,-3.039 0.371,-3.039 c -0.231,0 -0.377,0.15 -0.377,0.376 L 0,0 z"
             id="path46"
             style="fill:#2b2b2a;fill-opacity:1;fill-rule:nonzero;stroke:none"
             inkscape:connector-curvature="0" />
        </g>
        <g
           transform="translate(231.2725,784.1636)"
           id="g48">
          <path
             d="m 0,0 c 0.865,0 1.338,-0.542 1.337,-0.863 0,-0.211 -0.115,-0.338 -0.341,-0.338 -0.438,0.002 -0.307,0.597 -0.997,0.597 -0.474,0.002 -0.865,-0.406 -0.869,-1.118 -0.001,-0.599 0.238,-1.122 0.891,-1.124 0.594,-10e-4 0.582,0.629 0.945,0.629 0.184,0 0.368,-0.104 0.368,-0.289 C 1.333,-2.982 0.752,-3.452 0.02,-3.451 -1.015,-3.448 -1.626,-2.855 -1.624,-1.721 -1.622,-0.791 -1.069,0.003 0,0"
             id="path50"
             style="fill:#2b2b2a;fill-opacity:1;fill-rule:nonzero;stroke:none"
             inkscape:connector-curvature="0" />
        </g>
        <g
           transform="translate(234.2739,783.3257)"
           id="g52">
          <path
             d="M 0,0 -0.011,0 -0.458,-1.323 0.425,-1.324 0,0 z m -0.454,0.586 c 0.064,0.17 0.184,0.23 0.368,0.229 l 0.18,0 c 0.169,0 0.321,-0.044 0.403,-0.278 l 0.906,-2.523 c 0.028,-0.073 0.074,-0.205 0.073,-0.288 0,-0.183 -0.161,-0.33 -0.354,-0.33 -0.166,0 -0.287,0.061 -0.339,0.208 l -0.194,0.55 -1.215,0.002 -0.199,-0.548 c -0.051,-0.147 -0.156,-0.207 -0.337,-0.206 -0.205,0 -0.349,0.129 -0.348,0.33 0,0.083 0.047,0.215 0.074,0.289 l 0.982,2.565 z"
             id="path54"
             style="fill:#2b2b2a;fill-opacity:1;fill-rule:nonzero;stroke:none"
             inkscape:connector-curvature="0" />
        </g>
        <g
           transform="translate(204.5088,756.7817)"
           id="g56">
          <path
             d="m 0,0 c -0.303,0.001 -0.372,0.207 -0.372,0.408 l 0,0.22 c 0.002,0.234 0.094,0.343 0.348,0.42 l 2.126,0.65 0,0.008 -2.123,0.651 C -0.274,2.435 -0.367,2.546 -0.365,2.78 l 0,0.209 c 0,0.201 0.069,0.407 0.372,0.407 L 2.701,3.39 c 0.188,0 0.367,-0.093 0.366,-0.336 0,-0.241 -0.179,-0.332 -0.369,-0.332 l -2.052,0.004 0,-0.01 2.197,-0.703 C 3,1.96 3.064,1.847 3.064,1.692 3.064,1.535 2.998,1.421 2.842,1.37 l -2.2,-0.693 0,-0.01 2.052,-0.004 C 2.883,0.661 3.061,0.57 3.061,0.327 3.061,0.085 2.881,-0.007 2.692,-0.007 L 0,0 z"
             id="path58"
             style="fill:#2b2b2a;fill-opacity:1;fill-rule:nonzero;stroke:none"
             inkscape:connector-curvature="0" />
        </g>
        <g
           transform="translate(204.5229,760.8579)"
           id="g60">
          <path
             d="m 0,0 c -0.225,0 -0.377,0.146 -0.376,0.376 0,0.229 0.152,0.374 0.377,0.374 L 1.814,0.746 C 2.266,0.744 2.468,0.995 2.47,1.426 2.47,1.855 2.269,2.109 1.817,2.11 L 0.004,2.114 c -0.225,0.001 -0.376,0.147 -0.376,0.377 0,0.228 0.152,0.373 0.379,0.372 L 1.761,2.86 C 2.67,2.859 3.078,2.3 3.077,1.425 3.075,0.552 2.665,-0.005 1.753,-0.004 L 0,0 z"
             id="path62"
             style="fill:#2b2b2a;fill-opacity:1;fill-rule:nonzero;stroke:none"
             inkscape:connector-curvature="0" />
        </g>
        <g
           transform="translate(206.2354,765.0903)"
           id="g64">
          <path
             d="M 0,0 -1.54,-0.917 C -1.6,-0.954 -1.667,-0.98 -1.737,-0.98 c -0.257,0.001 -0.344,0.235 -0.344,0.38 0,0.179 0.074,0.261 0.222,0.339 l 1.212,0.654 -1.209,0.649 c -0.166,0.09 -0.221,0.17 -0.221,0.327 0,0.136 0.088,0.37 0.346,0.368 0.069,0 0.139,-0.026 0.198,-0.063 L 0.002,0.751 0.977,0.749 c 0.225,0 0.378,-0.149 0.376,-0.378 0,-0.226 -0.152,-0.374 -0.378,-0.374 L 0,0 z"
             id="path66"
             style="fill:#2b2b2a;fill-opacity:1;fill-rule:nonzero;stroke:none"
             inkscape:connector-curvature="0" />
        </g>
        <g
           transform="translate(243.1543,767.6587)"
           id="g68">
          <path
             d="m 0,0 c -0.216,0.078 -0.26,0.224 -0.26,0.458 0,0.233 0.047,0.379 0.264,0.457 l 2.615,0.92 C 2.706,1.864 2.78,1.88 2.839,1.88 3.094,1.878 3.175,1.686 3.175,1.497 3.175,1.298 3.067,1.186 2.842,1.12 l -2.255,-0.674 0,-0.008 2.252,-0.709 C 3.065,-0.342 3.17,-0.452 3.17,-0.625 3.169,-0.814 3.086,-1.005 2.834,-1.005 2.773,-1.005 2.7,-0.991 2.611,-0.958 L 0,0 z"
             id="path70"
             style="fill:#2b2b2a;fill-opacity:1;fill-rule:nonzero;stroke:none"
             inkscape:connector-curvature="0" />
        </g>
        <g
           transform="translate(245.9453,766.2651)"
           id="g72">
          <path
             d="m 0,0 c 0.225,0 0.377,-0.146 0.376,-0.375 0,-0.23 -0.153,-0.376 -0.377,-0.375 l -2.679,0.006 c -0.226,0 -0.377,0.148 -0.377,0.376 0.002,0.229 0.154,0.376 0.379,0.376 L 0,0 z"
             id="path74"
             style="fill:#2b2b2a;fill-opacity:1;fill-rule:nonzero;stroke:none"
             inkscape:connector-curvature="0" />
        </g>
        <g
           transform="translate(245.9419,764.8218)"
           id="g76">
          <path
             d="m 0,0 c 0.225,-0.002 0.378,-0.149 0.376,-0.379 0,-0.227 -0.152,-0.375 -0.377,-0.373 L -2.363,-0.748 -2.366,-2 c 0,-0.217 -0.11,-0.391 -0.318,-0.389 -0.207,0 -0.316,0.174 -0.316,0.39 l 0.002,1.565 c 0.002,0.266 0.109,0.439 0.445,0.439 L 0,0 z"
             id="path78"
             style="fill:#2b2b2a;fill-opacity:1;fill-rule:nonzero;stroke:none"
             inkscape:connector-curvature="0" />
        </g>
        <g
           transform="translate(245.9355,762.0249)"
           id="g80">
          <path
             d="m 0,0 c 0.225,0 0.377,-0.146 0.376,-0.376 0,-0.229 -0.153,-0.374 -0.377,-0.374 l -2.36,0.006 -0.003,-1.254 c -0.002,-0.215 -0.112,-0.389 -0.32,-0.389 -0.206,10e-4 -0.315,0.174 -0.315,0.389 l 0.003,1.565 c 0,0.265 0.106,0.439 0.443,0.439 L 0,0 z"
             id="path82"
             style="fill:#2b2b2a;fill-opacity:1;fill-rule:nonzero;stroke:none"
             inkscape:connector-curvature="0" />
        </g>
        <g
           transform="translate(245.4854,758.0415)"
           id="g84">
          <path
             d="M 0,0 0,0.009 -1.33,0.455 -1.331,-0.423 0,0 z m 0.589,0.451 c 0.17,-0.063 0.23,-0.184 0.23,-0.367 l 0,-0.179 c 0,-0.17 -0.043,-0.32 -0.277,-0.4 L -1.996,-1.396 C -2.07,-1.425 -2.203,-1.47 -2.287,-1.47 c -0.183,0 -0.33,0.162 -0.33,0.354 0,0.166 0.061,0.285 0.208,0.338 l 0.552,0.191 0.003,1.208 -0.551,0.198 c -0.147,0.051 -0.208,0.157 -0.206,0.335 0,0.206 0.13,0.347 0.332,0.347 0.083,0 0.215,-0.047 0.289,-0.074 L 0.589,0.451 z"
             id="path86"
             style="fill:#2b2b2a;fill-opacity:1;fill-rule:nonzero;stroke:none"
             inkscape:connector-curvature="0" />
        </g>
        <g
           transform="translate(224.8745,753.7603)"
           id="g88">
          <path
             d="m 0,0 c -1.405,0.002 -2.547,-1.878 -2.551,-4.199 -0.004,-1.03 0.005,-2.862 0.005,-2.862 0.598,-0.348 1.748,-0.46 2.529,-0.462 0.801,-0.002 1.817,0.064 2.544,0.502 0,0 0.003,1.814 0.006,2.811 C 2.539,-1.889 1.404,-0.003 0,0"
             id="path90"
             style="fill:#2b2b2a;fill-opacity:1;fill-rule:nonzero;stroke:none"
             inkscape:connector-curvature="0" />
        </g>
        <g
           transform="translate(211.8467,767.3579)"
           id="g92">
          <path
             d="m 0,0 c 1.119,-0.182 3.914,-0.601 7.409,-0.879 l 4.646,4.721 C 5.98,3.559 1.58,1.046 0,0"
             id="path94"
             style="fill:#2b2b2a;fill-opacity:1;fill-rule:nonzero;stroke:none"
             inkscape:connector-curvature="0" />
        </g>
        <g
           transform="translate(224.7944,771.2222)"
           id="g96">
          <path
             d="m 0,0 -4.729,-4.804 c 3.009,-0.213 6.45,-0.302 9.762,-0.053 L 0.289,0.002 C 0.192,0.003 0.096,0.001 0,0"
             id="path98"
             style="fill:#2b2b2a;fill-opacity:1;fill-rule:nonzero;stroke:none"
             inkscape:connector-curvature="0" />
        </g>
        <g
           transform="translate(224.8506,779.2349)"
           id="g100">
          <path
             d="m 0,0 -15.892,0.037 -0.068,-31.565 c 0,0 -0.718,-7.763 14.009,-7.763 l 3.742,-0.057 0.794,0 c 14.853,0 13.923,7.744 13.923,7.744 L 16.574,-0.04 0,0 z m 0.337,-36.112 c -6.411,0.015 -11.607,1.24 -11.602,2.737 0.001,0.798 1.494,1.511 3.852,2 l 2.029,11.092 0.004,1.504 c 0.001,0.226 0.2,0.412 0.449,0.412 l 0.785,-10e-4 c 0.249,-0.002 0.448,-0.188 0.447,-0.417 l -0.002,-0.994 c 0.227,0.051 0.474,0.103 0.738,0.154 l 0.003,1.12 c 0,0.232 0.202,0.414 0.449,0.414 l 0.785,-0.002 c 0.248,0 0.448,-0.185 0.448,-0.414 l -0.002,-0.878 c 0.241,0.025 0.49,0.042 0.746,0.057 l 0.002,1.199 c 0.002,0.231 0.202,0.414 0.45,0.414 l 0.785,-0.002 c 0.249,0 0.449,-0.187 0.448,-0.416 l -0.002,-1.18 c 0.286,-0.011 0.575,-0.028 0.871,-0.055 l 10e-4,0.852 c 0.002,0.23 0.203,0.413 0.451,0.413 l 0.785,0 c 0.248,-10e-4 0.449,-0.187 0.449,-0.418 l -0.003,-1.092 c 0.259,-0.053 0.521,-0.115 0.784,-0.182 l 0.003,0.898 c 0,0.226 0.201,0.412 0.45,0.411 l 0.784,-0.002 c 0.248,0 0.448,-0.187 0.448,-0.415 l -0.004,-1.414 c 0.011,-0.004 0.021,-0.008 0.032,-0.012 l 1.779,-11.053 c 2.434,-0.502 3.978,-1.232 3.977,-2.047 -0.004,-1.496 -5.205,-2.698 -11.619,-2.683 m 14.289,24.501 -0.67,-0.236 c -0.132,-0.049 -0.279,-0.033 -0.399,0.036 -0.139,0.082 -0.276,0.15 -0.415,0.227 -2.059,-0.804 -4.492,-1.287 -7.052,-1.543 l 1.51,-1.547 1.858,-0.083 c 0.058,-0.002 0.111,-0.023 0.151,-0.061 l 3.464,-3.199 c 0.07,-0.064 0.094,-0.164 0.062,-0.254 -0.033,-0.089 -0.116,-0.152 -0.212,-0.156 l -2.182,-0.103 0.018,-1.971 c 0.006,-0.02 0.009,-0.045 0.009,-0.067 0,-0.134 -0.11,-0.246 -0.241,-0.238 l -0.006,0 c -0.065,0 -0.128,0.027 -0.174,0.075 l -3.074,3.265 c -0.041,0.044 -0.064,0.1 -0.064,0.158 l -0.05,2.202 -1.866,1.912 c -1.504,-0.123 -3.035,-0.182 -4.546,-0.182 -2.04,0 -4.031,0.096 -5.858,0.23 l -2.098,-2.13 -0.053,-1.953 -3.099,-3.267 0.028,2.152 c -0.015,-0.002 -0.027,-0.016 -0.043,-0.016 -0.078,0 -0.156,0.027 -0.215,0.087 -0.018,0.016 -0.015,0.044 -0.028,0.063 l -2.129,0.112 3.489,3.194 1.613,0.063 1.727,1.756 c -3.863,0.318 -6.806,0.798 -7.508,0.918 -0.133,-0.096 -0.212,-0.157 -0.221,-0.164 -0.086,-0.066 -0.193,-0.105 -0.299,-0.105 -0.078,0 -0.157,0.021 -0.229,0.058 l -0.575,0.317 c -0.229,0.126 -0.314,0.414 -0.188,0.642 0.127,0.231 0.417,0.313 0.648,0.188 l 0.307,-0.168 c 0.923,0.658 5.749,4.065 13.302,4.327 l -2.802,2.871 -0.837,-1.976 -2.14,5.471 5.432,-2.292 -2.011,-0.773 3.131,-3.208 3.24,3.291 -2.007,0.779 5.443,2.267 -2.165,-5.459 -0.828,1.98 -2.903,-2.949 c 3.858,-0.109 8.259,-1.121 12.973,-3.812 l 0.465,0.164 c 0.25,0.087 0.521,-0.043 0.608,-0.289 0.089,-0.246 -0.043,-0.517 -0.291,-0.604"
             id="path102"
             style="fill:#2b2b2a;fill-opacity:1;fill-rule:nonzero;stroke:none"
             inkscape:connector-curvature="0" />
        </g>
        <g
           transform="translate(230.6255,766.4312)"
           id="g104">
          <path
             d="M 0,0 C 2.516,0.234 4.922,0.682 6.968,1.438 2.76,3.718 -1.175,4.636 -4.658,4.772 L 0,0 z"
             id="path106"
             style="fill:#2b2b2a;fill-opacity:1;fill-rule:nonzero;stroke:none"
             inkscape:connector-curvature="0" />
        </g>
        <g
           transform="translate(284.3154,743.3413)"
           id="g108">
          <path
             d="M 0,0 C -0.541,-0.497 -1.06,-1.129 -1.556,-1.896 -2.143,-2.799 -2.887,-3.52 -3.789,-4.061 -4.601,-4.558 -5.684,-4.94 -7.037,-5.211 l -0.812,0 c -1.174,0 -2.223,0.203 -3.147,0.609 -0.925,0.407 -1.737,0.948 -2.436,1.624 -0.7,0.676 -1.241,1.478 -1.624,2.403 -0.383,0.924 -0.553,1.904 -0.507,2.942 l 0,10.827 c 0,0.993 0.203,1.94 0.609,2.842 0.406,0.902 0.947,1.668 1.624,2.301 0.677,0.632 1.465,1.139 2.368,1.522 0.902,0.383 1.895,0.576 2.977,0.576 0.451,0 0.857,-0.024 1.218,-0.069 1.218,-0.315 2.21,-0.699 2.978,-1.149 0.947,-0.541 1.691,-1.264 2.233,-2.165 0.496,-0.769 1.059,-1.411 1.691,-1.93 0.632,-0.518 1.444,-0.777 2.436,-0.777 1.263,0 2.345,0.451 3.248,1.352 0.902,0.903 1.353,1.986 1.353,3.248 0,0.407 -0.08,0.835 -0.236,1.286 -0.159,0.451 -0.328,0.834 -0.508,1.151 -1.399,2.435 -3.293,4.331 -5.684,5.683 -1.579,0.903 -3.293,1.511 -5.142,1.828 -1.038,0.224 -2.211,0.338 -3.519,0.338 -2.436,0 -4.647,-0.429 -6.631,-1.286 -1.986,-0.857 -3.711,-2.03 -5.177,-3.518 -1.466,-1.489 -2.616,-3.226 -3.45,-5.21 -0.836,-1.987 -1.252,-4.106 -1.252,-6.362 l 0,-11.029 c 0,-2.256 0.45,-4.353 1.353,-6.293 0.902,-1.939 2.098,-3.62 3.586,-5.041 1.489,-1.421 3.225,-2.526 5.211,-3.315 1.984,-0.789 4.104,-1.185 6.36,-1.185 l 0.609,0 c 3.022,0 5.728,0.688 8.12,2.065 2.39,1.376 4.24,3.214 5.549,5.514 0.225,0.45 0.416,0.879 0.575,1.285 0.156,0.407 0.236,0.835 0.236,1.287 0,1.307 -0.451,2.402 -1.353,3.282 C 4.916,0.305 3.857,0.743 2.639,0.743 1.421,0.743 0.541,0.495 0,0 m 20.841,27.945 c -1.987,-0.857 -3.712,-2.03 -5.177,-3.518 -1.467,-1.489 -2.617,-3.226 -3.451,-5.21 -0.836,-1.987 -1.275,-4.106 -1.32,-6.362 l 0,-22.464 c 0,-1.173 0.451,-2.165 1.354,-2.978 0.902,-0.811 1.939,-1.218 3.112,-1.218 1.173,0 2.21,0.441 3.113,1.321 0.902,0.879 1.353,1.905 1.353,3.078 l 0,7.714 15.09,0 0,-7.917 c 0,-1.217 0.439,-2.222 1.318,-3.011 0.881,-0.789 1.93,-1.185 3.149,-1.185 1.217,0.045 2.242,0.496 3.077,1.355 0.835,0.855 1.252,1.871 1.252,3.044 l 0,22.803 c 0,2.255 -0.45,4.354 -1.353,6.293 -0.903,1.94 -2.097,3.621 -3.586,5.041 -1.489,1.421 -3.226,2.527 -5.21,3.316 -1.986,0.789 -4.06,1.184 -6.226,1.184 -2.346,0 -4.511,-0.429 -6.495,-1.286 m 14.074,-20.841 -15.09,0 0,6.09 c 0,0.993 0.203,1.94 0.61,2.842 0.406,0.902 0.947,1.668 1.623,2.301 0.677,0.632 1.466,1.139 2.369,1.522 0.901,0.383 1.849,0.576 2.842,0.576 1.082,0 2.085,-0.204 3.011,-0.61 0.924,-0.405 1.737,-0.946 2.436,-1.624 0.698,-0.677 1.24,-1.477 1.625,-2.401 0.381,-0.925 0.574,-1.906 0.574,-2.945 l 0,-5.751 z m 22.465,-11.909 0,29.502 c 0,1.263 -0.464,2.334 -1.388,3.214 -0.925,0.881 -1.973,1.32 -3.145,1.32 -1.31,0 -2.414,-0.439 -3.317,-1.32 -0.903,-0.88 -1.353,-1.951 -1.353,-3.214 l 0,-34.036 c 0.09,-1.308 0.564,-2.401 1.422,-3.281 0.855,-0.879 1.938,-1.319 3.248,-1.319 l 20.84,0 c 1.218,0 2.267,0.44 3.146,1.319 0.88,0.88 1.32,1.973 1.32,3.281 0,1.264 -0.44,2.335 -1.32,3.215 -0.879,0.88 -1.928,1.319 -3.146,1.319 l -16.307,0 z m 55.012,24.123 c -0.859,2.006 -2.031,3.755 -3.52,5.245 -1.488,1.488 -3.236,2.661 -5.244,3.517 -2.008,0.858 -4.139,1.286 -6.395,1.286 l -11.841,0 c -1.263,0 -2.334,-0.439 -3.213,-1.319 -0.881,-0.879 -1.321,-1.951 -1.321,-3.215 l 0,-34.306 c 0,-1.263 0.44,-2.335 1.321,-3.214 0.879,-0.879 1.95,-1.32 3.213,-1.32 1.263,0 2.336,0.441 3.214,1.32 0.88,0.879 1.321,1.951 1.321,3.214 l 0,5.954 7.306,0 c 2.256,0 4.387,0.429 6.395,1.287 2.008,0.855 3.756,2.03 5.244,3.518 1.489,1.488 2.661,3.236 3.52,5.244 0.855,2.006 1.285,4.139 1.285,6.395 0,2.255 -0.43,4.387 -1.285,6.394 m -8.358,-9.27 C 103.649,9.169 103.121,8.391 102.444,7.714 101.767,7.036 100.978,6.506 100.076,6.123 99.173,5.739 98.226,5.549 97.233,5.549 l -7.306,0 0,14.751 7.306,0 c 0.993,0 1.94,-0.194 2.843,-0.575 0.902,-0.384 1.691,-0.914 2.368,-1.591 0.677,-0.677 1.205,-1.466 1.59,-2.368 0.383,-0.904 0.574,-1.851 0.574,-2.842 0,-1.038 -0.191,-1.996 -0.574,-2.876"
             id="path110"
             style="fill:#2b2b2a;fill-opacity:1;fill-rule:nonzero;stroke:none"
             inkscape:connector-curvature="0" />
        </g>
        <g
           transform="translate(263.0293,790.6606)"
           id="g112">
          <path
             d="m 0,0 c -0.627,-0.271 -1.172,-0.642 -1.635,-1.111 -0.463,-0.47 -0.826,-1.019 -1.089,-1.645 -0.264,-0.627 -0.403,-1.297 -0.417,-2.01 l 0,-7.093 c 0,-0.371 0.142,-0.684 0.427,-0.94 0.285,-0.258 0.613,-0.386 0.983,-0.386 0.37,0 0.698,0.14 0.983,0.417 0.285,0.278 0.427,0.602 0.427,0.973 l 0,2.436 4.766,0 0,-2.5 c 0,-0.385 0.138,-0.703 0.416,-0.952 0.278,-0.25 0.609,-0.374 0.994,-0.374 0.384,0.015 0.708,0.157 0.972,0.428 0.264,0.271 0.395,0.591 0.395,0.962 l 0,7.201 c 0,0.712 -0.142,1.373 -0.427,1.987 C 6.51,-1.995 6.133,-1.464 5.663,-1.016 5.192,-0.566 4.644,-0.217 4.017,0.032 3.39,0.281 2.735,0.406 2.051,0.406 1.31,0.406 0.627,0.27 0,0 m 4.445,-6.581 -4.766,0 0,1.923 c 0,0.312 0.065,0.612 0.193,0.897 0.128,0.284 0.299,0.527 0.513,0.727 0.213,0.199 0.462,0.359 0.748,0.481 0.284,0.119 0.583,0.181 0.897,0.181 0.342,0 0.659,-0.065 0.951,-0.192 0.292,-0.128 0.548,-0.299 0.769,-0.513 0.221,-0.214 0.392,-0.467 0.513,-0.759 0.121,-0.292 0.182,-0.602 0.182,-0.93 l 0,-1.815 z m 7.436,6.538 C 11.61,-0.328 11.475,-0.662 11.475,-1.047 l 0,-7.351 c 0,-0.27 -0.054,-0.527 -0.161,-0.769 -0.107,-0.242 -0.249,-0.452 -0.427,-0.63 -0.178,-0.18 -0.392,-0.317 -0.641,-0.417 -0.249,-0.1 -0.51,-0.15 -0.78,-0.15 -0.385,0 -0.716,-0.142 -0.994,-0.427 -0.277,-0.285 -0.416,-0.627 -0.416,-1.026 0,-0.413 0.139,-0.755 0.416,-1.025 0.278,-0.271 0.609,-0.406 0.994,-0.406 0.684,0.014 1.321,0.148 1.912,0.406 0.591,0.256 1.104,0.601 1.539,1.035 0.434,0.436 0.776,0.941 1.026,1.518 0.249,0.577 0.381,1.208 0.395,1.891 l 0,7.351 c 0,0.385 -0.143,0.719 -0.427,1.004 -0.286,0.285 -0.634,0.428 -1.047,0.428 -0.385,0 -0.713,-0.143 -0.983,-0.428 m 10.897,-12.768 c 0.627,0.249 1.175,0.599 1.645,1.047 0.471,0.45 0.848,0.98 1.133,1.593 0.285,0.611 0.427,1.275 0.427,1.986 l 0,7.202 c 0,0.37 -0.132,0.691 -0.395,0.962 C 25.324,0.249 25,0.392 24.616,0.406 24.231,0.406 23.9,0.281 23.622,0.032 23.344,-0.217 23.206,-0.534 23.206,-0.919 l 0,-7.095 c 0,-0.327 -0.061,-0.637 -0.182,-0.929 -0.121,-0.292 -0.292,-0.544 -0.513,-0.758 -0.221,-0.214 -0.477,-0.385 -0.769,-0.513 -0.292,-0.128 -0.609,-0.192 -0.951,-0.192 -0.314,0 -0.613,0.059 -0.898,0.18 -0.285,0.122 -0.534,0.283 -0.747,0.482 -0.214,0.199 -0.385,0.442 -0.513,0.726 -0.128,0.285 -0.193,0.584 -0.193,0.898 l 0,7.137 c 0,0.37 -0.142,0.695 -0.427,0.972 -0.285,0.278 -0.613,0.417 -0.983,0.417 -0.37,0 -0.698,-0.129 -0.983,-0.385 -0.285,-0.256 -0.427,-0.57 -0.427,-0.94 l 0,-7.095 c 0.014,-0.713 0.153,-1.382 0.417,-2.008 0.263,-0.627 0.626,-1.175 1.089,-1.645 0.463,-0.471 1.008,-0.841 1.635,-1.111 0.627,-0.271 1.31,-0.407 2.051,-0.407 0.684,0 1.339,0.124 1.966,0.374 m 7.671,12.747 c -0.627,-0.271 -1.172,-0.641 -1.634,-1.111 -0.464,-0.471 -0.827,-1.019 -1.09,-1.646 -0.264,-0.627 -0.403,-1.296 -0.417,-2.008 l 0,-7.094 c 0,-0.371 0.142,-0.684 0.427,-0.941 0.285,-0.256 0.613,-0.384 0.983,-0.384 0.371,0 0.698,0.139 0.983,0.416 0.285,0.277 0.427,0.602 0.427,0.973 l 0,7.136 c 0,0.314 0.065,0.613 0.193,0.898 0.128,0.285 0.3,0.527 0.512,0.726 0.215,0.2 0.463,0.36 0.749,0.481 0.285,0.121 0.584,0.181 0.897,0.181 0.342,0 0.659,-0.063 0.951,-0.191 0.292,-0.128 0.548,-0.299 0.769,-0.514 0.22,-0.213 0.392,-0.466 0.513,-0.758 0.121,-0.292 0.182,-0.602 0.182,-0.929 l 0,-7.094 c 0,-0.386 0.139,-0.702 0.416,-0.951 0.277,-0.25 0.609,-0.374 0.994,-0.374 0.385,0.014 0.71,0.156 0.972,0.427 0.264,0.271 0.396,0.591 0.396,0.962 l 0,7.201 c 0,0.712 -0.143,1.374 -0.428,1.987 -0.285,0.611 -0.662,1.143 -1.132,1.592 -0.47,0.449 -1.019,0.798 -1.646,1.047 -0.627,0.249 -1.282,0.374 -1.965,0.374 -0.741,0 -1.425,-0.136 -2.052,-0.406 m 8.975,0.47 c -0.399,0 -0.736,-0.143 -1.015,-0.427 -0.278,-0.287 -0.417,-0.627 -0.417,-1.026 0,-0.413 0.139,-0.755 0.417,-1.026 0.279,-0.27 0.616,-0.406 1.015,-0.406 l 2.416,0 0,-9.316 c 0,-0.414 0.135,-0.76 0.405,-1.037 0.271,-0.277 0.612,-0.416 1.025,-0.416 0.414,0 0.755,0.139 1.026,0.416 0.27,0.277 0.406,0.623 0.406,1.037 l 0,9.316 2.394,0 c 0.412,0 0.758,0.136 1.035,0.406 0.278,0.271 0.418,0.613 0.418,1.026 0,0.399 -0.14,0.739 -0.418,1.026 -0.277,0.284 -0.623,0.427 -1.035,0.427 l -7.672,0 z M 51.883,0 c -0.627,-0.271 -1.173,-0.642 -1.636,-1.111 -0.463,-0.47 -0.826,-1.019 -1.09,-1.645 -0.264,-0.627 -0.403,-1.297 -0.417,-2.01 l 0,-7.093 c 0,-0.371 0.143,-0.684 0.428,-0.94 0.285,-0.258 0.612,-0.386 0.983,-0.386 0.37,0 0.699,0.14 0.984,0.417 0.283,0.278 0.426,0.602 0.426,0.973 l 0,2.436 4.765,0 0,-2.5 c 0,-0.385 0.139,-0.703 0.417,-0.952 0.278,-0.25 0.609,-0.374 0.993,-0.374 0.385,0.015 0.709,0.157 0.973,0.428 0.264,0.271 0.395,0.591 0.395,0.962 l 0,7.201 c 0,0.712 -0.143,1.373 -0.426,1.987 -0.287,0.612 -0.664,1.143 -1.134,1.591 -0.47,0.45 -1.019,0.799 -1.646,1.048 C 55.271,0.281 54.617,0.406 53.934,0.406 53.192,0.406 52.508,0.27 51.883,0 m 4.443,-6.581 -4.765,0 0,1.923 c 0,0.312 0.064,0.612 0.192,0.897 0.13,0.284 0.3,0.527 0.513,0.727 0.214,0.199 0.463,0.359 0.748,0.481 0.285,0.119 0.584,0.181 0.897,0.181 0.342,0 0.659,-0.065 0.951,-0.192 0.292,-0.128 0.549,-0.299 0.771,-0.513 0.219,-0.214 0.39,-0.467 0.512,-0.759 0.121,-0.292 0.181,-0.602 0.181,-0.93 l 0,-1.815 z m 12.682,6.677 c -0.477,-0.207 -0.923,-0.474 -1.336,-0.801 -0.427,0.342 -0.879,0.612 -1.356,0.811 -0.478,0.2 -0.987,0.3 -1.528,0.3 -0.599,0 -1.161,-0.121 -1.688,-0.363 -0.527,-0.243 -0.987,-0.564 -1.379,-0.962 -0.392,-0.399 -0.698,-0.862 -0.918,-1.39 -0.221,-0.526 -0.332,-1.067 -0.332,-1.624 l 0,-7.862 c 0,-0.414 0.139,-0.76 0.418,-1.037 0.277,-0.277 0.615,-0.416 1.014,-0.416 0.413,0 0.759,0.139 1.036,0.416 0.278,0.277 0.416,0.623 0.416,1.037 l 0,7.691 c 0,0.414 0.14,0.76 0.418,1.038 0.278,0.277 0.616,0.416 1.015,0.416 0.413,0 0.758,-0.139 1.036,-0.416 0.278,-0.278 0.417,-0.624 0.417,-1.038 l 0,-7.691 c 0,-0.414 0.14,-0.76 0.416,-1.037 0.279,-0.277 0.616,-0.416 1.015,-0.416 0.399,0 0.738,0.139 1.016,0.416 0.277,0.277 0.416,0.623 0.416,1.037 l 0,7.691 c 0,0.414 0.142,0.76 0.427,1.038 0.285,0.277 0.627,0.416 1.026,0.416 0.399,0 0.737,-0.139 1.015,-0.416 0.278,-0.278 0.417,-0.624 0.417,-1.038 l 0,-7.691 c 0,-0.414 0.139,-0.76 0.417,-1.037 0.278,-0.277 0.623,-0.416 1.036,-0.416 0.384,0 0.719,0.139 1.004,0.416 0.284,0.277 0.429,0.623 0.429,1.037 l 0,7.862 c -0.029,0.6 -0.162,1.158 -0.396,1.679 -0.236,0.52 -0.545,0.979 -0.93,1.378 -0.385,0.398 -0.834,0.712 -1.346,0.939 -0.514,0.229 -1.062,0.343 -1.646,0.343 -0.555,0 -1.072,-0.104 -1.549,-0.31 m 10.16,-10.46 0,2.565 3.27,0 c 0.384,0 0.719,0.139 1.004,0.416 0.285,0.278 0.427,0.615 0.427,1.015 0,0.399 -0.142,0.741 -0.427,1.026 -0.285,0.284 -0.62,0.427 -1.004,0.427 l -3.27,0 0,2.436 4.701,0 c 0.399,0 0.736,0.136 1.016,0.406 0.277,0.271 0.416,0.613 0.416,1.026 0,0.399 -0.139,0.739 -0.416,1.026 -0.28,0.284 -0.617,0.427 -1.016,0.427 l -6.111,0 c -0.412,0 -0.755,-0.15 -1.026,-0.449 -0.27,-0.299 -0.406,-0.634 -0.406,-1.004 l 0,-10.748 c 0,-0.414 0.147,-0.76 0.438,-1.037 0.293,-0.277 0.623,-0.416 0.994,-0.416 l 6.111,0 c 0.399,0 0.736,0.139 1.016,0.416 0.277,0.277 0.416,0.623 0.416,1.037 0,0.384 -0.139,0.719 -0.416,1.004 -0.28,0.285 -0.617,0.427 -1.016,0.427 l -4.701,0 z m 10.641,10.3 c -0.627,-0.271 -1.172,-0.641 -1.633,-1.111 -0.464,-0.471 -0.828,-1.019 -1.091,-1.646 -0.264,-0.627 -0.403,-1.296 -0.417,-2.008 l 0,-7.094 c 0,-0.371 0.143,-0.684 0.428,-0.941 0.285,-0.256 0.612,-0.384 0.983,-0.384 0.37,0 0.697,0.139 0.984,0.416 0.283,0.277 0.426,0.602 0.426,0.973 l 0,7.136 c 0,0.314 0.064,0.613 0.193,0.898 0.127,0.285 0.298,0.527 0.512,0.726 0.214,0.2 0.463,0.36 0.748,0.481 0.285,0.121 0.584,0.181 0.898,0.181 0.342,0 0.658,-0.063 0.95,-0.191 0.292,-0.128 0.548,-0.299 0.769,-0.514 0.221,-0.213 0.392,-0.466 0.513,-0.758 0.121,-0.292 0.182,-0.602 0.182,-0.929 l 0,-7.094 c 0,-0.386 0.139,-0.702 0.417,-0.951 0.277,-0.25 0.609,-0.374 0.993,-0.374 0.385,0.014 0.709,0.156 0.973,0.427 0.263,0.271 0.395,0.591 0.395,0.962 l 0,7.201 c 0,0.712 -0.143,1.374 -0.428,1.987 -0.285,0.611 -0.662,1.143 -1.131,1.592 -0.471,0.449 -1.02,0.798 -1.646,1.047 -0.627,0.249 -1.282,0.374 -1.966,0.374 -0.741,0 -1.425,-0.136 -2.052,-0.406 m 8.975,0.47 c -0.399,0 -0.737,-0.143 -1.014,-0.427 -0.279,-0.287 -0.418,-0.627 -0.418,-1.026 0,-0.413 0.139,-0.755 0.418,-1.026 0.277,-0.27 0.615,-0.406 1.014,-0.406 l 2.415,0 0,-9.316 c 0,-0.414 0.135,-0.76 0.406,-1.037 0.27,-0.277 0.612,-0.416 1.026,-0.416 0.412,0 0.754,0.139 1.025,0.416 0.27,0.277 0.407,0.623 0.407,1.037 l 0,9.316 2.392,0 c 0.413,0 0.76,0.136 1.037,0.406 0.278,0.271 0.416,0.613 0.416,1.026 0,0.399 -0.138,0.739 -0.416,1.026 -0.277,0.284 -0.624,0.427 -1.037,0.427 l -7.671,0 z m 22.928,-0.15 c -0.171,-0.071 -0.321,-0.171 -0.448,-0.299 -0.129,-0.128 -0.233,-0.278 -0.311,-0.448 -0.078,-0.171 -0.118,-0.35 -0.118,-0.535 l 0,-2.457 c -0.726,0.384 -1.517,0.577 -2.37,0.577 -0.699,0 -1.361,-0.139 -1.988,-0.417 -0.627,-0.279 -1.18,-0.652 -1.657,-1.122 -0.476,-0.47 -0.853,-1.018 -1.132,-1.645 -0.278,-0.627 -0.417,-1.289 -0.417,-1.987 0,-0.713 0.142,-1.382 0.428,-2.009 0.283,-0.627 0.665,-1.175 1.143,-1.645 0.477,-0.47 1.029,-0.841 1.656,-1.111 0.627,-0.271 1.282,-0.406 1.967,-0.406 0.681,0 1.338,0.139 1.965,0.416 0.627,0.277 1.177,0.651 1.656,1.122 0.477,0.47 0.853,1.019 1.133,1.646 0.277,0.626 0.416,1.289 0.416,1.987 l 0,7.03 c 0,0.413 -0.139,0.751 -0.416,1.015 -0.28,0.262 -0.603,0.394 -0.973,0.394 -0.185,0 -0.363,-0.034 -0.534,-0.106 m -2.351,-6.122 c 0.285,-0.121 0.537,-0.288 0.759,-0.502 0.22,-0.213 0.396,-0.466 0.523,-0.758 0.128,-0.292 0.192,-0.609 0.192,-0.951 0,-0.328 -0.064,-0.634 -0.192,-0.919 -0.127,-0.285 -0.303,-0.538 -0.523,-0.759 -0.222,-0.222 -0.474,-0.395 -0.759,-0.523 -0.285,-0.128 -0.584,-0.193 -0.896,-0.193 -0.328,0 -0.639,0.065 -0.931,0.193 -0.292,0.128 -0.548,0.299 -0.768,0.512 -0.222,0.214 -0.396,0.467 -0.525,0.759 -0.128,0.292 -0.192,0.602 -0.192,0.93 0,0.312 0.064,0.616 0.192,0.908 0.129,0.292 0.303,0.548 0.525,0.769 0.22,0.22 0.476,0.396 0.768,0.524 0.292,0.128 0.603,0.191 0.931,0.191 0.312,0 0.611,-0.06 0.896,-0.181 m 8.633,2.533 c -0.627,-0.286 -1.176,-0.666 -1.646,-1.145 -0.47,-0.476 -0.844,-1.028 -1.121,-1.655 -0.278,-0.627 -0.416,-1.275 -0.416,-1.944 0,-0.684 0.138,-1.346 0.416,-1.987 0.277,-0.641 0.656,-1.202 1.132,-1.678 0.477,-0.477 1.03,-0.855 1.657,-1.132 0.627,-0.278 1.281,-0.403 1.964,-0.374 0.528,0.014 1.028,0.082 1.497,0.203 0.47,0.121 0.898,0.338 1.283,0.651 0.213,0.228 0.338,0.478 0.373,0.748 0.035,0.271 0,0.524 -0.107,0.758 -0.107,0.236 -0.27,0.432 -0.492,0.589 -0.221,0.155 -0.479,0.241 -0.78,0.256 -0.156,0 -0.295,-0.021 -0.416,-0.064 -0.121,-0.043 -0.242,-0.093 -0.363,-0.15 -0.121,-0.057 -0.26,-0.107 -0.416,-0.149 -0.158,-0.043 -0.35,-0.065 -0.579,-0.065 -0.825,0 -1.474,0.407 -1.944,1.219 l 5.685,0 c 0.412,-0.016 0.758,0.085 1.037,0.299 0.276,0.213 0.416,0.505 0.416,0.876 0,0.683 -0.143,1.335 -0.428,1.955 -0.285,0.62 -0.666,1.168 -1.142,1.644 -0.479,0.479 -1.031,0.859 -1.657,1.145 -0.627,0.284 -1.282,0.427 -1.967,0.427 -0.697,0 -1.36,-0.143 -1.986,-0.427 m 0.042,-3.548 c 0.242,0.442 0.525,0.752 0.845,0.93 0.32,0.178 0.687,0.266 1.099,0.266 0.401,0 0.763,-0.088 1.091,-0.266 0.327,-0.178 0.613,-0.488 0.855,-0.93 l -3.89,0 z"
             id="path114"
             style="fill:#2b2b2a;fill-opacity:1;fill-rule:nonzero;stroke:none"
             inkscape:connector-curvature="0" />
        </g>
      </g>
    </g>
  </g>
</svg>
